<?xml version="1.0" encoding="UTF-8"?>
<svg id="Layer_1" data-name="Layer 1" xmlns="http://www.w3.org/2000/svg" viewBox="0 0 350.61 48.02">
  <defs>
    <style>
      .cls-1 {
        fill: #283681;
      }

      .cls-2 {
        fill: #ef3829;
      }

      .cls-3 {
        fill: #231f20;
      }
    </style>
  </defs>
  <g>
    <g>
      <path class="cls-2" d="M106.12,3.69l-.56-1.05h-.38v1.05h-.53V.96h.74c.22,0,.45,0,.66,.07,.35,.12,.53,.41,.53,.77s-.17,.61-.48,.76l.62,1.13h-.61Zm-.28-2.24c-.12-.05-.28-.05-.41-.05h-.25v.79h.34c.28,0,.53-.08,.53-.41,0-.15-.07-.27-.21-.33Z"/>
      <path class="cls-2" d="M105.54,0c-1.33,0-2.4,1.08-2.4,2.4s1.08,2.4,2.4,2.4,2.4-1.08,2.4-2.4-1.08-2.4-2.4-2.4Zm0,4.41c-1.11,0-2.01-.9-2.01-2.01s.9-2.01,2.01-2.01,2.01,.9,2.01,2.01-.9,2.01-2.01,2.01Z"/>
    </g>
    <g>
      <g>
        <path class="cls-2" d="M11.79,19.87c2.47,.12,5.24-.42,6.26-.61l-1.58,4.27h-6.18l1.49-3.66Z"/>
        <path class="cls-2" d="M19.54,.97l-5.69,13.9c2.16-.15,4.51-.67,6.13-.8L24.83,.97h-5.3Z"/>
      </g>
      <path class="cls-2" d="M31.54,21.56c-.79-.47-2.36-1.31-4.42-1.82l1.37,3.79h8.4l1.86-5c.11-.02,2.03-.36,4.2-.36s4.01,.34,4.13,.37l1.81,4.99h16.48V14.45l6.89,9.09h17.08v-6.69h3.78c6.29,0,10.1-3.11,10.1-7.94s-3.48-7.94-10.1-7.94h-11.98V22.61l-6.43-6.99c.99-.45,4.54-2.19,4.54-6.71s-3.66-7.94-11.12-7.94h-10.98V21.79L49.13,.97h-9.18l-5.78,14.15L28.71,.97h-8.38l4.75,13.1c-.16-.03-1.64-.32-3.64-.32-4.56,0-6.02,.81-9.71,.81-5.09,0-9.5-2.85-9.96-3.15L0,15.72c.24,.16,4.82,3.39,11.46,3.39,4.09,0,6.59-.96,10.53-.96,5.09,0,8.63,1.79,9.9,2.55l-.35,.86Zm11.4-14.36l2.51,6.72c-.12-.02-1.38-.18-2.51-.18-1.06,0-2.44,.16-2.56,.18l2.56-6.72Zm22.42,5.91V4.69h1.21c3.13,0,4.26,1.98,4.26,4.22,0,2.61-1.44,4.2-4.26,4.2h-1.21Zm23.98,0V4.69h1.66c2.49,0,3.79,1.76,3.79,4.22,0,2.62-1.45,4.2-3.79,4.2h-1.66Z"/>
    </g>
  </g>
  <rect class="cls-3" x="113.45" y="1.01" width=".5" height="25.01"/>
  <g>
    <path class="cls-3" d="M124.38,18.8v-.17l1.75-.2-.02,1.02c.34-.76,.96-1.09,1.76-1.09,1.56,0,2.29,1.12,2.29,2.57,0,1.54-.89,2.81-2.48,2.81-.68,0-1.19-.2-1.55-.8v3.11l1,.29v.18h-2.66v-.17l.79-.29v-7.02l-.88-.23Zm3.27,4.57c1.28,0,1.49-1.57,1.49-2.53,0-1.25-.46-2.16-1.42-2.16-1.27,0-1.61,1.51-1.61,2.42,0,1.08,.28,2.27,1.54,2.27Z"/>
    <path class="cls-3" d="M130.92,18.78v-.17l1.56-.2,.12,.8c.34-.52,.83-.84,1.45-.84,.24,0,.48,.06,.7,.23l-.3,.86c-.19-.32-.41-.54-.8-.54-.7,0-1.02,.62-1.02,1.8v2.31l1.04,.3v.17h-2.71v-.17l.78-.32v-4l-.82-.23Z"/>
    <path class="cls-3" d="M140.4,21c0,1.69-1.15,2.72-2.58,2.72s-2.58-1.03-2.58-2.72,.91-2.65,2.58-2.65,2.58,.98,2.58,2.65Zm-2.58,2.42c1.09,0,1.56-1.08,1.56-2.45,0-1.27-.47-2.33-1.56-2.33s-1.57,1.06-1.57,2.33c0,1.37,.47,2.45,1.57,2.45Z"/>
    <path class="cls-3" d="M142.92,18.56v.17l-.62,.28,1.46,3.55,1.55-3.65-.61-.18v-.17h1.79v.17l-.59,.19-2.21,4.77h-.3l-2.05-4.64-.74-.32v-.17h2.33Z"/>
    <path class="cls-3" d="M146.88,18.76v-.17l1.76-.18v4.64l.79,.29v.17h-2.47v-.17l.79-.29v-4.07l-.88-.23Zm1.79-2.28c0,.3-.26,.58-.58,.58s-.59-.28-.59-.58,.26-.59,.59-.59,.58,.28,.58,.59Z"/>
    <path class="cls-3" d="M154.18,19.18v-3.42l-.88-.23v-.17l1.74-.18v7.86l.88,.31v.17l-1.68,.11-.08-1c-.13,.37-.65,1.09-1.67,1.09-1.58,0-2.31-1.18-2.31-2.65,0-1.86,1.12-2.72,2.47-2.72,.72,0,1.27,.35,1.54,.83Zm-1.54,4.19c.61,0,1.55-.58,1.55-2.42,0-1.39-.47-2.29-1.51-2.29s-1.49,1.07-1.52,2.35c-.04,1.33,.52,2.36,1.49,2.36Z"/>
    <path class="cls-3" d="M160.86,20.62c0,.07-.01,.14-.01,.22h-3.49c0,.1-.01,.2-.01,.31,0,1.08,.34,2.19,1.64,2.21,.48,0,1.01-.16,1.76-.88l.19,.2c-.58,.68-1.15,1.05-2.06,1.05-1.61,0-2.52-.85-2.52-2.7,0-1.68,1.06-2.69,2.46-2.69s2.04,1.12,2.04,2.27Zm-.95-.14c.01-.85-.26-1.85-1.09-1.85-1.15,0-1.42,1.45-1.45,1.85h2.54Z"/>
    <path class="cls-3" d="M165.65,19.18v-3.42l-.88-.23v-.17l1.74-.18v7.86l.88,.31v.17l-1.68,.11-.08-1c-.13,.37-.65,1.09-1.67,1.09-1.58,0-2.31-1.18-2.31-2.65,0-1.86,1.12-2.72,2.47-2.72,.72,0,1.27,.35,1.54,.83Zm-1.54,4.19c.61,0,1.55-.58,1.55-2.42,0-1.39-.47-2.29-1.51-2.29s-1.49,1.07-1.52,2.35c-.04,1.33,.52,2.36,1.49,2.36Z"/>
    <path class="cls-3" d="M170.4,15.53v-.17l1.81-.18-.04,4.32c.29-.78,.9-1.15,1.7-1.15,1.36,0,2.3,.84,2.31,2.54,.01,1.55-1.05,2.83-2.65,2.83-1.27,0-2.02-.3-2.27-.42v-7.54l-.88-.23Zm1.81,7.42c.25,.29,.79,.47,1.25,.47,1.42,0,1.72-1.49,1.72-2.6,0-1.24-.42-2.11-1.42-2.11-1.21,0-1.58,1.4-1.58,2.3v1.04c0,.55,.04,.9,.04,.9Z"/>
    <path class="cls-3" d="M178.72,18.56v.14l-.62,.3,1.48,3.48s.83-1.8,1.54-3.54l-.65-.24v-.14h1.94v.14l-.72,.26-3.38,7.6-.7-.1c.94-1.62,1.55-2.99,1.55-2.99l-2.05-4.47-.74-.31v-.14h2.36Z"/>
  </g>
  <g>
    <path class="cls-3" d="M130.56,11.24V6.87h-3.92v4.37h-1.91V1.35h1.91v3.95h3.92V1.35h1.91V11.24h-1.91Z"/>
    <path class="cls-3" d="M135.99,8.16c.07,1.08,.59,1.82,1.72,1.82,.6,0,1.11-.22,1.36-.8l1.61,.07c-.03,.14-.07,.28-.13,.42-.48,1.22-1.67,1.77-2.91,1.77-2.19,0-3.47-1.5-3.47-3.63s1.2-3.81,3.43-3.81,3.25,1.79,3.22,3.84v.32h-4.83Zm1.6-2.75c-.9,0-1.37,.6-1.54,1.41h2.93c-.1-.8-.52-1.41-1.39-1.41Z"/>
    <path class="cls-3" d="M146.52,11.24c-.07-.28-.1-.52-.08-.8-.45,.7-1.09,.95-1.92,.95-1.3,0-2.59-.52-2.59-2.02,0-2.17,2.66-2.45,4.26-2.72v-.11c0-.76-.31-1.06-1.06-1.06-.59,0-1.08,.17-1.2,.81h-1.74c.17-1.71,1.55-2.25,3.11-2.25,.67,0,1.5,.13,2.02,.57,.66,.56,.64,1.43,.64,2.21v2.84c0,.5-.01,1.12,.24,1.57h-1.67Zm-2.73-2.1c0,.6,.57,.85,1.09,.85,1.01,0,1.3-.7,1.3-1.58v-.53c-.77,.07-2.4,.2-2.4,1.26Z"/>
    <path class="cls-3" d="M154.26,5.98c-.21-.21-.81-.35-1.09-.35-1.26,0-1.4,1.37-1.4,2.33v3.28h-1.82V5.45c0-.43-.03-.84-.1-1.26h1.75c.11,.49,.1,.95,.1,1.46,.38-.83,1.04-1.61,2.03-1.61,.2,0,.36,.04,.55,.1v1.85Z"/>
    <path class="cls-3" d="M156.46,3.27c-.64,0-1.06-.39-1.06-1.04,0-.21,.07-.45,.18-.63,.17-.27,.56-.46,.88-.46,.66,0,1.06,.43,1.06,1.08s-.42,1.05-1.06,1.05Zm-.91,7.97V4.19h1.82v7.05h-1.82Z"/>
    <path class="cls-3" d="M163.7,11.24v-3.99c0-.81-.17-1.6-1.15-1.6-.29,0-.55,.08-.78,.27-.55,.42-.55,1.08-.55,1.71v3.61h-1.82V6.35c0-.64,0-1.55-.22-2.16h1.77c.13,.28,.15,.59,.17,.9,.43-.69,1.29-1.05,2.09-1.05,.73,0,1.48,.29,1.92,.9,.39,.55,.42,1.29,.42,1.93v4.37h-1.83Z"/>
    <path class="cls-3" d="M172.65,5.49c.24,.32,.36,.87,.36,1.26,0,.53-.18,1.05-.57,1.41-.41,.36-.97,.55-1.5,.6-.48,.06-.98,.03-1.44,.17-.15,.06-.35,.15-.35,.35,0,.08,.06,.18,.13,.22,.21,.13,1.13,.2,1.4,.22,.69,.06,1.78,.14,2.35,.53,.52,.35,.79,.97,.79,1.58s-.27,1.19-.74,1.61c-.7,.62-1.88,.76-2.77,.76-.84,0-1.92-.15-2.63-.6-.52-.32-.88-.87-.88-1.48,0-.92,.64-1.36,1.42-1.64-.41-.15-.77-.38-.77-.85,0-.63,.74-.94,1.23-1.12-.83-.41-1.19-1.11-1.19-2,0-1.72,1.4-2.48,2.96-2.48,.31,0,.63,.04,.92,.1,.04,.01,.39,.1,.41,.1l2.33-.04v1.3h-1.43Zm-2.58,5.62c-.56,0-1.74,.11-1.74,.88s1.39,.9,1.96,.9,1.77-.08,1.77-.87-1.4-.91-1.99-.91Zm.2-5.69c-.67,0-1.23,.35-1.23,1.08s.55,1.04,1.2,1.04,1.25-.32,1.25-1.04-.55-1.08-1.22-1.08Z"/>
    <path class="cls-3" d="M185.93,9.88c-.64,1.16-1.91,1.56-3.17,1.56-1.67,0-3.21-.69-3.7-2.41-.11-.38-.13-.76-.15-1.15h1.83c.03,.27,.07,.52,.17,.77,.32,.8,1.05,1.13,1.88,1.13,.63,0,1.58-.27,1.58-1.05,0-.17-.06-.28-.13-.43-.21-.42-.98-.71-1.39-.88-.84-.35-1.9-.73-2.62-1.27-.67-.52-1.01-1.25-1.01-2.09,0-1.9,1.65-2.9,3.39-2.9,1.25,0,2.56,.53,3.11,1.74,.21,.45,.27,.87,.29,1.36h-1.83c.01-.92-.74-1.46-1.61-1.46-.62,0-1.44,.34-1.44,1.06s.87,.95,1.4,1.16c.84,.34,2.02,.71,2.75,1.23,.73,.52,1.02,1.26,1.02,2.14,0,.52-.13,1.04-.38,1.48Z"/>
    <path class="cls-3" d="M190.79,11.43c-2.12,0-3.47-1.7-3.47-3.73s1.36-3.71,3.49-3.71,3.47,1.68,3.47,3.73-1.34,3.71-3.49,3.71Zm0-5.98c-1.18,0-1.61,1.3-1.61,2.27s.46,2.26,1.62,2.26,1.61-1.3,1.61-2.27-.45-2.26-1.62-2.26Z"/>
    <path class="cls-3" d="M195.8,11.24V1.28h1.82V11.24h-1.82Z"/>
    <path class="cls-3" d="M204.31,11.24c-.1-.27-.13-.53-.15-.81-.43,.66-1.19,.97-1.96,.97s-1.62-.31-2.1-.97c-.43-.6-.49-1.33-.49-2.04V4.19h1.83v4.02c0,.84,.2,1.57,1.19,1.57,1.15,0,1.4-.87,1.4-1.84v-3.75h1.83v4.86c0,.74-.04,1.46,.18,2.19h-1.74Z"/>
    <path class="cls-3" d="M211.86,11.05c-.52,.21-1.02,.34-1.6,.34-.85,0-1.6-.38-1.91-1.21-.11-.32-.14-.64-.14-.98,0-.28,.01-.57,.03-.85l.08-2.73h-1.09v-1.43h1.15l.06-2.04h1.76l-.03,2.04h1.43v1.43h-1.46c-.01,1.06-.04,2.13-.04,3.19,0,.56,.04,.97,.74,.97,.34,0,.71-.13,1.02-.24v1.51Z"/>
    <path class="cls-3" d="M214.14,3.27c-.64,0-1.06-.39-1.06-1.04,0-.21,.07-.45,.18-.63,.17-.27,.56-.46,.88-.46,.66,0,1.07,.43,1.07,1.08s-.42,1.05-1.07,1.05Zm-.91,7.97V4.19h1.82v7.05h-1.82Z"/>
    <path class="cls-3" d="M220.03,11.43c-2.12,0-3.47-1.7-3.47-3.73s1.36-3.71,3.49-3.71,3.47,1.68,3.47,3.73-1.34,3.71-3.49,3.71Zm0-5.98c-1.18,0-1.61,1.3-1.61,2.27s.46,2.26,1.62,2.26,1.61-1.3,1.61-2.27-.45-2.26-1.62-2.26Z"/>
    <path class="cls-3" d="M229.33,11.24v-3.99c0-.81-.17-1.6-1.15-1.6-.29,0-.55,.08-.78,.27-.55,.42-.55,1.08-.55,1.71v3.61h-1.82V6.35c0-.64,0-1.55-.22-2.16h1.77c.13,.28,.15,.59,.17,.9,.43-.69,1.29-1.05,2.09-1.05,.73,0,1.48,.29,1.92,.9,.39,.55,.42,1.29,.42,1.93v4.37h-1.83Z"/>
    <path class="cls-3" d="M237.9,10.86c-.55,.45-1.39,.57-2.06,.57-1.67,0-3.15-.59-3.15-2.51v-.04h1.72c.01,.84,.57,1.18,1.34,1.18,.5,0,1.11-.18,1.11-.78,0-.27-.2-.41-.42-.52-.55-.25-1.16-.38-1.74-.56-.97-.31-1.77-.76-1.77-1.91,0-1.58,1.42-2.31,2.82-2.31,1.12,0,2.24,.39,2.7,1.5,.11,.27,.17,.56,.17,.84h-1.75c-.11-.66-.46-.97-1.15-.97-.43,0-.98,.22-.98,.73,0,.57,.8,.71,1.22,.84,.57,.17,1.57,.43,2.03,.77,.48,.35,.69,.91,.69,1.48,0,.64-.28,1.26-.78,1.68Z"/>
    <path class="cls-3" d="M241.28,1.97v3.44h-.79V1.97h-1.08v-.68h2.97v.68h-1.09Z"/>
    <path class="cls-3" d="M246.2,5.41V2.19l-.88,3.21h-.82l-.87-3.21v3.21h-.71V1.29h1.1l.89,3.27,.9-3.27h1.09V5.41h-.71Z"/>
  </g>
  <g>
    <g>
      <path class="cls-1" d="M191.33,46.53h0c1.04,.35,2.12,.54,3.3,.54,4.96,0,8.42-3.6,8.42-10.43V16.27l1.88-.9v21.63c0,6.97-3.6,11.03-8.69,11.03-1.77,0-3.43-.54-4.9-1.5Z"/>
      <path class="cls-1" d="M189.17,44.46h0c1.14,.38,2.29,.63,3.3,.63,4.17,0,6.95-2.61,6.95-8.53V17.82l1.85-.87v19.77c0,6.18-3.13,9.34-7.49,9.34-1.61,0-3.24-.6-4.6-1.61Z"/>
      <path class="cls-1" d="M187.87,42.6h0c1.01,.3,1.93,.49,2.75,.49,3.24,0,5.23-1.77,5.23-6.43V19.4l1.82-.87v17.87c0,5.23-2.4,7.6-5.83,7.6-1.44,0-2.81-.49-3.98-1.39Z"/>
      <path class="cls-1" d="M194.13,37.16V20.11l-8.04,3.62v13.84c0,2.64,1.66,4.41,4.11,4.41s3.92-1.8,3.92-4.82Z"/>
    </g>
    <g>
      <g>
        <path class="cls-1" d="M349.49,22.14c-.63,0-1.11,.48-1.11,1.12s.48,1.14,1.11,1.14,1.11-.49,1.11-1.13-.48-1.13-1.11-1.13Zm0,2.08c-.53,0-.91-.4-.91-.95s.39-.95,.92-.95,.91,.4,.91,.95-.38,.95-.91,.95Z"/>
        <path class="cls-1" d="M251.61,22.17c-2.43,0-4.05,2.32-4.05,4.86s1.56,4.86,4.23,4.86c1.87,0,2.93-1.28,3.36-2.73l-.8-.22c-.37,1-1.02,1.78-2.32,1.78-1.5,0-2.52-1.43-2.52-3.69h5.77v-.54c0-2.39-1.41-4.32-3.68-4.32Zm-2.06,3.95c.19-1.8,.93-2.9,2.04-2.9,1.02,0,1.67,.95,1.74,2.9h-3.79Z"/>
        <path class="cls-1" d="M273.12,19.37l.28,.02c.69,.04,1.21,.32,1.21,1.1v4.05h-4.86v-4.05c0-.78,.52-1.04,1.21-1.1l.26-.02v-.65h-4.92v.65l.28,.02c.69,.04,1.21,.32,1.21,1.1v9.47c0,.78-.52,1.06-1.21,1.09l-.28,.02v.65h4.92v-.65l-.26-.02c-.69-.06-1.21-.32-1.21-1.09v-4.42h4.86v4.42c0,.78-.52,1.06-1.21,1.09l-.28,.02v.65h4.92v-.65l-.26-.02c-.69-.06-1.21-.32-1.21-1.09v-9.47c0-.78,.52-1.04,1.21-1.1l.26-.02v-.65h-4.92v.65Z"/>
        <path class="cls-1" d="M344.75,22.17c-2.43,0-4.05,2.32-4.05,4.86s1.56,4.86,4.23,4.86c1.87,0,2.93-1.28,3.36-2.73l-.8-.22c-.37,1-1.02,1.78-2.32,1.78-1.5,0-2.52-1.43-2.52-3.69h5.77v-.54c0-2.39-1.41-4.32-3.68-4.32Zm-2.06,3.95c.19-1.8,.93-2.9,2.04-2.9,1.02,0,1.67,.95,1.74,2.9h-3.79Z"/>
        <path class="cls-1" d="M226.42,18.72h-4.32v.65l.28,.02c.8,.06,1.3,.63,1.3,1.37v6.44c0,2.1-1.09,3.38-2.8,3.38s-2.75-1.35-2.75-3.4v-6.61c0-.72,.39-1.13,1.21-1.19l.26-.02v-.65h-4.92v.65l.28,.02c.8,.06,1.21,.45,1.21,1.19v6.89c0,2.54,1.5,4.53,4.38,4.53,2.47,0,4.32-1.82,4.32-4.58v-6.64c0-.72,.48-1.32,1.3-1.37l.26-.02v-.65Z"/>
        <path class="cls-1" d="M245.52,30.67c-.78,0-1.04-.58-1.04-1.24v-6.01h2.54v-.97h-2.54v-2.86h-.93c-.35,2.15-1.45,2.93-2.6,3.17v.65h1.71v6.22c0,1.45,.87,2.26,2.26,2.26,1.3,0,2.15-.95,2.54-2.3l-.67-.19c-.26,.78-.69,1.26-1.28,1.26Z"/>
        <path class="cls-1" d="M238.77,20.78c.63,0,1.19-.54,1.19-1.24,0-.67-.56-1.21-1.19-1.21s-1.19,.54-1.19,1.21c0,.71,.54,1.24,1.19,1.24Z"/>
        <path class="cls-1" d="M234.92,29.97v-5.07c0-1.45-.89-2.65-2.65-2.65-1.24,0-2.32,.74-2.75,2.06v-2.02l-3.12,.24v.61l.37,.02c.58,.04,.93,.32,.93,1.1v5.72c0,.78-.39,1.06-1.02,1.1l-.28,.02v.63h4.4v-.63l-.26-.02c-.63-.04-1.02-.32-1.02-1.1v-3.04c.04-2.23,1-3.56,2.13-3.56,.87,0,1.45,.59,1.45,1.74v4.86c0,.78-.39,1.06-1.02,1.1l-.28,.02v.63h4.4v-.63l-.26-.02c-.63-.04-1.02-.32-1.02-1.1Z"/>
        <path class="cls-1" d="M239.73,29.97v-7.68l-3.21,.24v.61l.46,.02c.58,.02,.93,.32,.93,1.1v5.72c0,.78-.39,1.06-1.02,1.1l-.28,.02v.63h4.4v-.63l-.26-.02c-.63-.04-1.02-.32-1.02-1.1Z"/>
        <path class="cls-1" d="M264.42,29.97v-11.49l-3.16,.28v.61l.41,.02c.58,.02,.93,.32,.93,1.1v3.34c-.41-1.04-1.36-1.65-2.58-1.65-2.43,0-3.81,2.32-3.81,4.86s1.37,4.86,3.81,4.86c1.22,0,2.17-.63,2.58-1.71v1.52h3.1v-.63l-.26-.02c-.63-.04-1.02-.32-1.02-1.1Zm-4.08,.87c-1.3,0-2.15-1.47-2.15-3.81s.85-3.8,2.15-3.8c1.37,0,2.26,1.48,2.26,3.8s-.89,3.81-2.26,3.81Z"/>
        <path class="cls-1" d="M314.79,29.97v-5.07c0-1.45-.89-2.65-2.65-2.65-1.24,0-2.32,.74-2.75,2.06v-5.83l-3.16,.28v.61l.41,.02c.58,.02,.93,.32,.93,1.1v9.48c0,.78-.39,1.06-1.02,1.1l-.28,.02v.63h4.4v-.63l-.26-.02c-.63-.04-1.02-.32-1.02-1.1v-3.04c.04-2.23,1-3.56,2.13-3.56,.87,0,1.45,.59,1.45,1.74v4.86c0,.78-.39,1.06-1.02,1.1l-.28,.02v.63h4.4v-.63l-.26-.02c-.63-.04-1.02-.32-1.02-1.1Z"/>
        <path class="cls-1" d="M320.95,30.73c-1.5,0-2.52-1.43-2.52-3.69s1-3.77,2.51-3.77c.67,0,1.19,.22,1.5,.63-.28,.19-.46,.5-.46,.85,0,.54,.45,.98,.98,.98s.98-.45,.98-1.08c0-1.11-1.11-2.49-3.1-2.49-2.77,0-4.36,2.32-4.36,4.86s1.56,4.86,4.23,4.86c1.84,0,2.88-1.22,3.29-2.62l-.8-.24c-.35,.95-.98,1.69-2.25,1.69Z"/>
        <path class="cls-1" d="M331.66,30.17v-4.84c0-1.99-1.24-3.16-3.34-3.16-1.8,0-3.4,1.19-3.4,2.54,0,.58,.43,1.02,.98,1.02s.98-.45,.98-.98c0-.37-.2-.71-.5-.87,.33-.46,.93-.74,1.65-.74,1.13,0,1.82,.85,1.82,2.28v.43l-2.75,1.13c-1.84,.76-2.47,1.43-2.47,2.64,0,1.39,1,2.28,2.58,2.28,1.19,0,2.17-.72,2.62-1.82v.28c0,.95,.67,1.52,1.78,1.52,.45,0,.8-.06,1.17-.17v-.63c-.78,.09-1.13-.2-1.13-.91Zm-1.82-2.1c-.09,1.63-.91,2.73-2.04,2.73-.82,0-1.34-.56-1.34-1.41,0-.76,.41-1.36,1.19-1.69l2.21-.98-.02,1.36Z"/>
        <path class="cls-1" d="M338.77,22.21c-1.08,0-2,.71-2.41,1.97v-1.89l-3.12,.24v.61l.37,.02c.58,.04,.93,.32,.93,1.1v5.72c0,.78-.39,1.06-1.02,1.1l-.28,.02v.63h4.4v-.63l-.26-.02c-.63-.04-1.02-.32-1.02-1.1v-3.12c.04-2.32,1.04-3.77,2.26-3.77,.28,0,.46,.07,.61,.24-.32,.17-.52,.48-.52,.87,0,.54,.45,.98,.98,.98s.98-.45,.98-1.08c0-1.17-.87-1.89-1.91-1.89Z"/>
        <path class="cls-1" d="M349.83,23.31c.15-.07,.2-.14,.2-.3,0-.23-.14-.35-.39-.35h-.6v1.25h.2v-.5h.34c.18,0,.23,.07,.24,.27,0,.13,0,.14,.04,.23h.22s-.06-.12-.06-.18c-.01-.3-.04-.35-.18-.41Zm-.22-.07h-.38v-.41h.36c.16,0,.23,.06,.23,.2s-.08,.21-.21,.21Z"/>
        <path class="cls-1" d="M293.84,30.17v-4.84c0-1.99-1.24-3.16-3.34-3.16-1.8,0-3.4,1.19-3.4,2.54,0,.58,.43,1.02,.98,1.02s.98-.45,.98-.98c0-.37-.2-.71-.5-.87,.33-.46,.93-.74,1.65-.74,1.13,0,1.82,.85,1.82,2.28v.43l-2.75,1.13c-1.84,.76-2.47,1.43-2.47,2.64,0,1.39,1,2.28,2.58,2.28,1.19,0,2.17-.72,2.62-1.82v.28c0,.95,.67,1.52,1.78,1.52,.45,0,.8-.06,1.17-.17v-.63c-.78,.09-1.13-.2-1.13-.91Zm-1.82-2.1c-.09,1.63-.91,2.73-2.04,2.73-.82,0-1.34-.56-1.34-1.41,0-.76,.41-1.36,1.19-1.69l2.21-.98-.02,1.36Z"/>
        <path class="cls-1" d="M305.6,29.41c-.26,.78-.69,1.26-1.28,1.26-.78,0-1.04-.58-1.04-1.24v-6.01h2.54v-.97h-2.54v-2.86h-.93c-.35,2.15-1.45,2.93-2.6,3.17v.65h1.71v6.22c0,1.45,.87,2.26,2.26,2.26,1.3,0,2.15-.95,2.54-2.3l-.67-.19Z"/>
        <path class="cls-1" d="M282.44,22.17c-2.43,0-4.05,2.32-4.05,4.86s1.56,4.86,4.23,4.86c1.87,0,2.93-1.28,3.36-2.73l-.8-.22c-.37,1-1.02,1.78-2.32,1.78-1.5,0-2.52-1.43-2.52-3.69h5.77v-.54c0-2.39-1.41-4.32-3.68-4.32Zm-2.06,3.95c.19-1.8,.93-2.9,2.04-2.9,1.02,0,1.67,.95,1.74,2.9h-3.79Z"/>
        <path class="cls-1" d="M298.53,29.97v-11.49l-3.16,.28v.61l.41,.02c.58,.02,.93,.32,.93,1.1v9.48c0,.78-.39,1.06-1.02,1.1l-.28,.02v.63h4.4v-.63l-.26-.02c-.63-.04-1.02-.32-1.02-1.1Z"/>
      </g>
      <g>
        <path class="cls-1" d="M223.13,44.69h-1.52v-3.89h-3.96v3.89h-1.52v-8.66h1.52v3.47h3.96v-3.47h1.52v8.66Z"/>
        <path class="cls-1" d="M229.87,42.73c-.32,1.34-1.39,2.13-2.84,2.13-1.86,0-3.09-1.28-3.09-3.23s1.27-3.37,3.04-3.37c1.19,0,2.18,.62,2.65,1.7,.23,.52,.34,1.12,.32,1.93h-4.63c.05,1.25,.66,1.95,1.74,1.95,.75,0,1.21-.34,1.49-1.1h1.32Zm-1.3-1.76c-.09-1.04-.7-1.69-1.61-1.69s-1.48,.6-1.62,1.69h3.23Z"/>
        <path class="cls-1" d="M236.6,44.7c-.4,.1-.69,.16-.91,.16-.57,0-.91-.25-1.03-.77-.6,.51-1.34,.77-2.17,.77-1.31,0-2.15-.73-2.15-1.87,0-.62,.25-1.17,.67-1.43,.45-.29,1.13-.44,2.53-.6,.82-.09,1.09-.29,1.09-.77,0-.56-.44-.86-1.27-.86-.88,0-1.3,.29-1.41,.99h-1.38c.09-.75,.26-1.12,.71-1.48,.47-.39,1.19-.6,2.09-.6,1.54,0,2.56,.7,2.56,1.78v3.3c0,.35,.08,.44,.39,.44,.06,0,.14,0,.27-.03v.96Zm-2.05-3.15c-.31,.19-.43,.22-1.36,.32-1.04,.13-1.45,.42-1.45,1.01,0,.56,.44,.88,1.21,.88,.93,0,1.61-.48,1.61-1.16v-1.06Z"/>
        <path class="cls-1" d="M241.03,39.63c-.23-.03-.35-.04-.49-.04-.49,0-.9,.16-1.22,.47-.44,.43-.57,.91-.57,2.11v2.52h-1.39v-6.27h1.3v1.25c.51-.96,1.14-1.39,2.13-1.39,.04,0,.13,0,.25,.01v1.34Z"/>
        <path class="cls-1" d="M243.27,36.8c0,.45-.38,.83-.84,.83s-.83-.39-.83-.87c0-.45,.39-.84,.84-.84s.83,.39,.83,.88Zm-.14,7.89h-1.39v-6.27h1.39v6.27Z"/>
        <path class="cls-1" d="M245.73,39.34c.57-.77,1.18-1.09,2.09-1.09,.79,0,1.49,.34,1.82,.88,.23,.38,.31,.77,.31,1.56v4h-1.39v-3.65c0-.55-.03-.78-.12-1.03-.14-.38-.54-.61-1.08-.61-.61,0-1.12,.31-1.35,.8-.14,.31-.19,.68-.19,1.34v3.14h-1.39v-6.27h1.3v.92Z"/>
        <path class="cls-1" d="M256.65,43.96c0,1.03-.1,1.53-.42,2.02-.48,.77-1.35,1.16-2.61,1.16-1.7,0-2.65-.64-2.8-1.92h1.39c.13,.64,.58,.93,1.45,.93,1.17,0,1.63-.53,1.65-1.84v-.74c-.44,.73-1.08,1.05-1.99,1.05-1.66,0-2.73-1.22-2.73-3.13s1.12-3.24,2.8-3.24c.88,0,1.48,.32,1.95,1.05v-.88h1.3v5.54Zm-4.65-2.56c0,1.32,.61,2.11,1.63,2.11s1.67-.82,1.67-2.11-.64-2.05-1.63-2.05-1.67,.78-1.67,2.05Z"/>
      </g>
    </g>
  </g>
</svg>