<?xml version="1.0" encoding="UTF-8"?>
<svg id="Layer_1" data-name="Layer 1" xmlns="http://www.w3.org/2000/svg" viewBox="0 0 138.19 18.93">
  <defs>
    <style>
      .cls-1 {
        fill: #283681;
      }

      .cls-2 {
        fill: #ef3829;
      }

      .cls-3 {
        fill: #231f20;
      }
    </style>
  </defs>
  <g>
    <g>
      <path class="cls-2" d="M41.83,1.46l-.22-.41h-.15v.41h-.21V.38h.29c.09,0,.18,0,.26,.03,.14,.05,.21,.16,.21,.3s-.07,.24-.19,.3l.25,.45h-.24Zm-.11-.88s-.11-.02-.16-.02h-.1v.31h.14c.11,0,.21-.03,.21-.16,0-.06-.03-.11-.08-.13Z"/>
      <path class="cls-2" d="M41.6,0c-.52,0-.95,.42-.95,.95s.42,.95,.95,.95,.95-.42,.95-.95-.42-.95-.95-.95Zm0,1.74c-.44,0-.79-.35-.79-.79s.35-.79,.79-.79,.79,.35,.79,.79-.35,.79-.79,.79Z"/>
    </g>
    <g>
      <g>
        <path class="cls-2" d="M4.65,7.83c.97,.05,2.06-.17,2.47-.24l-.62,1.68h-2.44l.59-1.44Z"/>
        <path class="cls-2" d="M7.7,.38l-2.24,5.48c.85-.06,1.78-.26,2.41-.31L9.79,.38h-2.09Z"/>
      </g>
      <path class="cls-2" d="M12.43,8.5c-.31-.18-.93-.52-1.74-.72l.54,1.5h3.31l.73-1.97s.8-.14,1.65-.14,1.58,.14,1.63,.14l.71,1.97h6.49v-3.58l2.72,3.58h6.73v-2.64h1.49c2.48,0,3.98-1.22,3.98-3.13s-1.37-3.13-3.98-3.13h-4.72V8.91l-2.54-2.76c.39-.18,1.79-.86,1.79-2.64S29.8,.38,26.85,.38h-4.33V8.59L19.36,.38h-3.62l-2.28,5.58L11.31,.38h-3.3l1.87,5.16c-.06-.01-.65-.13-1.44-.13-1.8,0-2.37,.32-3.83,.32-2,0-3.75-1.12-3.93-1.24l-.7,1.7c.09,.06,1.9,1.34,4.52,1.34,1.61,0,2.6-.38,4.15-.38,2.01,0,3.4,.71,3.9,1l-.14,.34Zm4.49-5.66l.99,2.65s-.54-.07-.99-.07c-.42,0-.96,.06-1.01,.07l1.01-2.65Zm8.84,2.33V1.85h.47c1.23,0,1.68,.78,1.68,1.66,0,1.03-.57,1.66-1.68,1.66h-.47Zm9.45,0V1.85h.66c.98,0,1.49,.69,1.49,1.66,0,1.03-.57,1.66-1.49,1.66h-.66Z"/>
    </g>
  </g>
  <rect class="cls-3" x="44.71" y=".4" width=".2" height="9.86"/>
  <g>
    <path class="cls-3" d="M49.03,7.41v-.07l.69-.08v.4c.12-.3,.37-.43,.69-.43,.61,0,.9,.44,.9,1.01,0,.61-.35,1.11-.98,1.11-.27,0-.47-.08-.61-.32v1.22l.39,.11v.07h-1.05v-.07l.31-.11v-2.77l-.35-.09Zm1.29,1.8c.51,0,.59-.62,.59-1,0-.49-.18-.85-.56-.85-.5,0-.63,.6-.63,.95,0,.43,.11,.89,.61,.89Z"/>
    <path class="cls-3" d="M51.6,7.4v-.07l.61-.08,.05,.32c.13-.2,.33-.33,.57-.33,.09,0,.19,.02,.27,.09l-.12,.34c-.08-.13-.16-.21-.32-.21-.27,0-.4,.25-.4,.71v.91l.41,.12v.07h-1.07v-.07l.31-.13v-1.58l-.32-.09Z"/>
    <path class="cls-3" d="M55.34,8.28c0,.67-.45,1.07-1.02,1.07s-1.02-.41-1.02-1.07,.36-1.04,1.02-1.04,1.02,.39,1.02,1.04Zm-1.02,.95c.43,0,.61-.43,.61-.96,0-.5-.18-.92-.61-.92s-.62,.42-.62,.92c0,.54,.18,.96,.62,.96Z"/>
    <path class="cls-3" d="M56.33,7.31v.07l-.25,.11,.58,1.4,.61-1.44-.24-.07v-.07h.7v.07l-.23,.08-.87,1.88h-.12l-.81-1.83-.29-.13v-.07h.92Z"/>
    <path class="cls-3" d="M57.89,7.39v-.07l.69-.07v1.83l.31,.11v.07h-.97v-.07l.31-.11v-1.6l-.35-.09Zm.7-.9c0,.12-.1,.23-.23,.23s-.23-.11-.23-.23,.1-.23,.23-.23,.23,.11,.23,.23Z"/>
    <path class="cls-3" d="M60.77,7.56v-1.35l-.35-.09v-.07l.69-.07v3.1l.35,.12v.07l-.66,.04-.03-.39c-.05,.15-.26,.43-.66,.43-.62,0-.91-.46-.91-1.04,0-.73,.44-1.07,.97-1.07,.28,0,.5,.14,.61,.33Zm-.61,1.65c.24,0,.61-.23,.61-.95,0-.55-.18-.9-.6-.9s-.59,.42-.6,.93c-.01,.52,.2,.93,.59,.93Z"/>
    <path class="cls-3" d="M63.4,8.13s0,.06,0,.09h-1.38s0,.08,0,.12c0,.43,.13,.86,.65,.87,.19,0,.4-.06,.69-.34l.08,.08c-.23,.27-.45,.42-.81,.42-.63,0-.99-.34-.99-1.06,0-.66,.42-1.06,.97-1.06s.8,.44,.8,.89Zm-.37-.06c0-.34-.1-.73-.43-.73-.45,0-.56,.57-.57,.73h1Z"/>
    <path class="cls-3" d="M65.29,7.56v-1.35l-.35-.09v-.07l.69-.07v3.1l.35,.12v.07l-.66,.04-.03-.39c-.05,.15-.26,.43-.66,.43-.62,0-.91-.46-.91-1.04,0-.73,.44-1.07,.97-1.07,.28,0,.5,.14,.61,.33Zm-.61,1.65c.24,0,.61-.23,.61-.95,0-.55-.18-.9-.6-.9s-.59,.42-.6,.93c-.01,.52,.2,.93,.59,.93Z"/>
    <path class="cls-3" d="M67.16,6.12v-.07l.71-.07v1.7c.1-.31,.34-.45,.66-.45,.53,0,.91,.33,.91,1,0,.61-.42,1.12-1.04,1.12-.5,0-.79-.12-.89-.17v-2.97l-.35-.09Zm.71,2.93c.1,.11,.31,.18,.49,.18,.56,0,.68-.59,.68-1.03,0-.49-.17-.83-.56-.83-.48,0-.62,.55-.62,.91v.41c0,.22,.01,.35,.01,.35Z"/>
    <path class="cls-3" d="M70.44,7.31v.06l-.25,.12,.58,1.37s.33-.71,.61-1.39l-.26-.09v-.06h.77v.06l-.28,.1-1.33,3-.27-.04c.37-.64,.61-1.18,.61-1.18l-.81-1.76-.29-.12v-.06h.93Z"/>
  </g>
  <g>
    <path class="cls-3" d="M51.46,4.43v-1.72h-1.55v1.72h-.75V.53h.75v1.56h1.55V.53h.75v3.9h-.75Z"/>
    <path class="cls-3" d="M53.6,3.21c.03,.43,.23,.72,.68,.72,.24,0,.44-.09,.54-.31l.63,.03c-.01,.06-.03,.11-.05,.17-.19,.48-.66,.7-1.15,.7-.86,0-1.37-.59-1.37-1.43s.47-1.5,1.35-1.5,1.28,.71,1.27,1.51v.13h-1.9Zm.63-1.08c-.35,0-.54,.24-.61,.56h1.15c-.04-.31-.2-.56-.55-.56Z"/>
    <path class="cls-3" d="M57.75,4.43c-.03-.11-.04-.2-.03-.31-.18,.28-.43,.38-.76,.38-.51,0-1.02-.2-1.02-.8,0-.86,1.05-.97,1.68-1.07v-.04c0-.3-.12-.42-.42-.42-.23,0-.43,.07-.47,.32h-.68c.07-.67,.61-.89,1.23-.89,.27,0,.59,.05,.8,.23,.26,.22,.25,.56,.25,.87v1.12c0,.2,0,.44,.09,.62h-.66Zm-1.08-.83c0,.24,.23,.34,.43,.34,.4,0,.51-.28,.51-.62v-.21c-.3,.03-.94,.08-.94,.5Z"/>
    <path class="cls-3" d="M60.8,2.36c-.08-.08-.32-.14-.43-.14-.5,0-.55,.54-.55,.92v1.29h-.72V2.15c0-.17-.01-.33-.04-.5h.69c.04,.19,.04,.38,.04,.57,.15-.33,.41-.63,.8-.63,.08,0,.14,.02,.22,.04v.73Z"/>
    <path class="cls-3" d="M61.67,1.29c-.25,0-.42-.15-.42-.41,0-.08,.03-.18,.07-.25,.07-.1,.22-.18,.35-.18,.26,0,.42,.17,.42,.43s-.17,.41-.42,.41Zm-.36,3.14V1.65h.72v2.78h-.72Z"/>
    <path class="cls-3" d="M64.52,4.43v-1.57c0-.32-.07-.63-.45-.63-.12,0-.22,.03-.31,.1-.22,.17-.22,.43-.22,.67v1.42h-.72v-1.93c0-.25,0-.61-.09-.85h.7c.05,.11,.06,.23,.07,.35,.17-.27,.51-.41,.82-.41,.29,0,.59,.12,.76,.35,.15,.22,.17,.51,.17,.76v1.72h-.72Z"/>
    <path class="cls-3" d="M68.05,2.17c.09,.13,.14,.34,.14,.5,0,.21-.07,.41-.23,.56-.16,.14-.38,.22-.59,.24-.19,.02-.39,.01-.57,.07-.06,.02-.14,.06-.14,.14,0,.03,.02,.07,.05,.09,.08,.05,.45,.08,.55,.09,.27,.02,.7,.06,.93,.21,.2,.14,.31,.38,.31,.62s-.11,.47-.29,.63c-.28,.24-.74,.3-1.09,.3-.33,0-.76-.06-1.04-.24-.2-.13-.35-.34-.35-.59,0-.36,.25-.54,.56-.65-.16-.06-.3-.15-.3-.34,0-.25,.29-.37,.49-.44-.33-.16-.47-.44-.47-.79,0-.68,.55-.98,1.16-.98,.12,0,.25,.02,.36,.04,.02,0,.15,.04,.16,.04l.92-.02v.51h-.56Zm-1.02,2.21c-.22,0-.68,.04-.68,.35s.55,.35,.77,.35,.7-.03,.7-.34-.55-.36-.78-.36Zm.08-2.24c-.27,0-.49,.14-.49,.43s.22,.41,.47,.41,.49-.13,.49-.41-.22-.43-.48-.43Z"/>
    <path class="cls-3" d="M73.29,3.89c-.25,.46-.75,.61-1.25,.61-.66,0-1.26-.27-1.46-.95-.04-.15-.05-.3-.06-.45h.72c.01,.1,.03,.2,.07,.3,.13,.31,.41,.45,.74,.45,.25,0,.62-.11,.62-.41,0-.07-.02-.11-.05-.17-.08-.17-.39-.28-.55-.35-.33-.14-.75-.29-1.03-.5-.26-.2-.4-.49-.4-.82,0-.75,.65-1.14,1.34-1.14,.49,0,1.01,.21,1.23,.68,.08,.18,.1,.34,.12,.54h-.72c0-.36-.29-.57-.63-.57-.24,0-.57,.13-.57,.42s.34,.38,.55,.46c.33,.13,.8,.28,1.08,.49,.29,.2,.4,.5,.4,.84,0,.2-.05,.41-.15,.59Z"/>
    <path class="cls-3" d="M75.2,4.51c-.83,0-1.37-.67-1.37-1.47s.54-1.46,1.37-1.46,1.37,.66,1.37,1.47-.53,1.46-1.37,1.46Zm0-2.36c-.46,0-.63,.51-.63,.89s.18,.89,.64,.89,.64-.51,.64-.89-.18-.89-.64-.89Z"/>
    <path class="cls-3" d="M77.17,4.43V.5h.72v3.93h-.72Z"/>
    <path class="cls-3" d="M80.53,4.43c-.04-.1-.05-.21-.06-.32-.17,.26-.47,.38-.77,.38s-.64-.12-.83-.38c-.17-.24-.19-.52-.19-.81V1.65h.72v1.58c0,.33,.08,.62,.47,.62,.45,0,.55-.34,.55-.72V1.65h.72v1.92c0,.29-.02,.57,.07,.86h-.68Z"/>
    <path class="cls-3" d="M83.5,4.36c-.2,.08-.4,.13-.63,.13-.34,0-.63-.15-.75-.47-.04-.13-.06-.25-.06-.39,0-.11,0-.23,.01-.34l.03-1.08h-.43v-.56h.45l.02-.81h.7v.81s.55,0,.55,0v.56h-.57c0,.42-.02,.84-.02,1.26,0,.22,.02,.38,.29,.38,.13,0,.28-.05,.4-.09v.6Z"/>
    <path class="cls-3" d="M84.4,1.29c-.25,0-.42-.15-.42-.41,0-.08,.03-.18,.07-.25,.07-.1,.22-.18,.35-.18,.26,0,.42,.17,.42,.43s-.17,.41-.42,.41Zm-.36,3.14V1.65h.72v2.78h-.72Z"/>
    <path class="cls-3" d="M86.73,4.51c-.83,0-1.37-.67-1.37-1.47s.54-1.46,1.37-1.46,1.37,.66,1.37,1.47-.53,1.46-1.37,1.46Zm0-2.36c-.46,0-.63,.51-.63,.89s.18,.89,.64,.89,.63-.51,.63-.89-.18-.89-.64-.89Z"/>
    <path class="cls-3" d="M90.39,4.43v-1.57c0-.32-.07-.63-.45-.63-.12,0-.22,.03-.31,.1-.22,.17-.22,.43-.22,.67v1.42h-.72v-1.93c0-.25,0-.61-.09-.85h.7c.05,.11,.06,.23,.07,.35,.17-.27,.51-.41,.82-.41,.29,0,.59,.12,.76,.35,.15,.22,.17,.51,.17,.76v1.72h-.72Z"/>
    <path class="cls-3" d="M93.77,4.28c-.22,.18-.55,.23-.81,.23-.66,0-1.24-.23-1.24-.99v-.02h.68c0,.33,.23,.46,.53,.46,.2,0,.44-.07,.44-.31,0-.1-.08-.16-.17-.2-.22-.1-.46-.15-.68-.22-.38-.12-.7-.3-.7-.75,0-.62,.56-.91,1.11-.91,.44,0,.88,.15,1.07,.59,.04,.11,.07,.22,.07,.33h-.69c-.04-.26-.18-.38-.45-.38-.17,0-.39,.09-.39,.29,0,.23,.31,.28,.48,.33,.23,.07,.62,.17,.8,.3,.19,.14,.27,.36,.27,.59,0,.25-.11,.5-.31,.66Z"/>
    <path class="cls-3" d="M95.1,.78v1.36h-.31V.78h-.43v-.27h1.17v.27h-.43Z"/>
    <path class="cls-3" d="M97.04,2.13V.87l-.35,1.27h-.32l-.34-1.27v1.27h-.28V.51h.43l.35,1.29,.36-1.29h.43v1.62h-.28Z"/>
  </g>
  <g>
    <g>
      <path class="cls-1" d="M75.41,18.34h0c.41,.14,.84,.21,1.3,.21,1.95,0,3.32-1.42,3.32-4.11V6.41l.74-.35V14.58c0,2.75-1.42,4.35-3.42,4.35-.7,0-1.35-.21-1.93-.59Z"/>
      <path class="cls-1" d="M74.56,17.52h0c.45,.15,.9,.25,1.3,.25,1.64,0,2.74-1.03,2.74-3.36V7.02l.73-.34v7.79c0,2.44-1.23,3.68-2.95,3.68-.63,0-1.28-.24-1.81-.63Z"/>
      <path class="cls-1" d="M74.05,16.79h0c.4,.12,.76,.19,1.08,.19,1.28,0,2.06-.7,2.06-2.53V7.65l.72-.34v7.04c0,2.06-.94,3-2.3,3-.57,0-1.11-.19-1.57-.55Z"/>
      <path class="cls-1" d="M76.52,14.65V7.92l-3.17,1.43v5.45c0,1.04,.65,1.74,1.62,1.74s1.55-.71,1.55-1.9Z"/>
    </g>
    <g>
      <g>
        <path class="cls-1" d="M137.75,8.73c-.25,0-.44,.19-.44,.44s.19,.45,.44,.45,.44-.2,.44-.45-.19-.45-.44-.45Zm0,.82c-.21,0-.36-.16-.36-.37s.15-.38,.36-.38,.36,.16,.36,.37-.15,.38-.36,.38Z"/>
        <path class="cls-1" d="M99.17,8.74c-.96,0-1.59,.91-1.59,1.92s.61,1.92,1.67,1.92c.74,0,1.16-.5,1.32-1.08l-.31-.09c-.15,.4-.4,.7-.91,.7-.59,0-.99-.56-.99-1.46h2.28v-.21c0-.94-.56-1.7-1.45-1.7Zm-.81,1.56c.07-.71,.37-1.14,.8-1.14,.4,0,.66,.37,.69,1.14h-1.49Z"/>
        <path class="cls-1" d="M107.65,7.64h.11c.27,.02,.48,.13,.48,.44v1.59h-1.92v-1.59c0-.31,.2-.41,.48-.43h.1v-.26h-1.94v.26h.11c.27,.02,.48,.13,.48,.44v3.73c0,.31-.2,.42-.48,.43h-.11v.26h1.94v-.26h-.1c-.27-.03-.48-.13-.48-.44v-1.74h1.92v1.74c0,.31-.2,.42-.48,.43h-.11v.26h1.94v-.26h-.1c-.27-.03-.48-.13-.48-.44v-3.73c0-.31,.2-.41,.48-.43h.1v-.26h-1.94v.26Z"/>
        <path class="cls-1" d="M135.88,8.74c-.96,0-1.59,.91-1.59,1.92s.61,1.92,1.67,1.92c.74,0,1.16-.5,1.32-1.08l-.31-.09c-.15,.4-.4,.7-.91,.7-.59,0-.99-.56-.99-1.46h2.28v-.21c0-.94-.56-1.7-1.45-1.7Zm-.81,1.56c.07-.71,.37-1.14,.8-1.14,.4,0,.66,.37,.69,1.14h-1.49Z"/>
        <path class="cls-1" d="M89.25,7.38h-1.7v.26h.11c.31,.03,.51,.26,.51,.55v2.54c0,.83-.43,1.33-1.1,1.33s-1.08-.53-1.08-1.34v-2.6c0-.29,.15-.45,.48-.47h.1v-.26h-1.94v.26h.11c.31,.03,.48,.18,.48,.48v2.71c0,1,.59,1.79,1.73,1.79,.97,0,1.7-.72,1.7-1.81v-2.62c0-.29,.19-.52,.51-.54h.1v-.26Z"/>
        <path class="cls-1" d="M96.77,12.09c-.31,0-.41-.23-.41-.49v-2.37h1v-.38h-1v-1.13h-.37c-.14,.85-.57,1.16-1.02,1.25v.26h.67v2.45c0,.57,.34,.89,.89,.89,.51,0,.85-.37,1-.91l-.26-.07c-.1,.31-.27,.5-.5,.5Z"/>
        <path class="cls-1" d="M94.11,8.19c.25,0,.47-.21,.47-.49,0-.26-.22-.48-.47-.48s-.47,.21-.47,.48c0,.28,.21,.49,.47,.49Z"/>
        <path class="cls-1" d="M92.6,11.81v-2c0-.57-.35-1.05-1.05-1.05-.49,0-.91,.29-1.08,.81v-.8l-1.23,.1v.24h.15c.23,.02,.37,.13,.37,.44v2.25c0,.31-.15,.42-.4,.43h-.11v.26h1.73v-.25h-.1c-.25-.02-.4-.13-.4-.44v-1.2c.01-.88,.4-1.4,.84-1.4,.34,0,.57,.23,.57,.69v1.92c0,.31-.15,.42-.4,.43h-.11v.26h1.73v-.25h-.1c-.25-.02-.4-.13-.4-.44Z"/>
        <path class="cls-1" d="M94.49,11.81v-3.03l-1.27,.1v.24h.18c.23,.01,.37,.13,.37,.44v2.25c0,.31-.15,.42-.4,.43h-.11v.26h1.73v-.25h-.1c-.25-.02-.4-.13-.4-.44Z"/>
        <path class="cls-1" d="M104.22,11.81V7.28l-1.24,.11v.24h.16c.23,.01,.37,.13,.37,.44v1.32c-.16-.41-.53-.65-1.02-.65-.96,0-1.5,.91-1.5,1.92s.54,1.92,1.5,1.92c.48,0,.86-.25,1.02-.67v.6h1.22v-.25h-.1c-.25-.02-.4-.13-.4-.44Zm-1.61,.34c-.51,0-.85-.58-.85-1.5s.34-1.5,.85-1.5c.54,0,.89,.59,.89,1.5s-.35,1.5-.89,1.5Z"/>
        <path class="cls-1" d="M124.08,11.81v-2c0-.57-.35-1.05-1.05-1.05-.49,0-.91,.29-1.08,.81v-2.3l-1.24,.11v.24h.16c.23,.01,.37,.13,.37,.44v3.74c0,.31-.15,.42-.4,.43h-.11v.26h1.73v-.25h-.1c-.25-.02-.4-.13-.4-.44v-1.2c.01-.88,.4-1.4,.84-1.4,.34,0,.57,.23,.57,.69v1.92c0,.31-.15,.42-.4,.43h-.11v.26h1.73v-.25h-.1c-.25-.02-.4-.13-.4-.44Z"/>
        <path class="cls-1" d="M126.5,12.11c-.59,0-.99-.56-.99-1.46s.4-1.49,.99-1.49c.26,0,.47,.09,.59,.25-.11,.07-.18,.2-.18,.34,0,.21,.18,.39,.39,.39s.39-.18,.39-.42c0-.44-.44-.98-1.22-.98-1.09,0-1.72,.91-1.72,1.92s.61,1.92,1.67,1.92c.72,0,1.13-.48,1.29-1.03l-.31-.1c-.14,.37-.39,.67-.89,.67Z"/>
        <path class="cls-1" d="M130.73,11.89v-1.91c0-.78-.49-1.24-1.32-1.24-.71,0-1.34,.47-1.34,1,0,.23,.17,.4,.39,.4s.39-.18,.39-.39c0-.15-.08-.28-.2-.34,.13-.18,.37-.29,.65-.29,.45,0,.72,.34,.72,.9v.17l-1.08,.45c-.72,.3-.97,.56-.97,1.04,0,.55,.4,.9,1.02,.9,.47,0,.86-.29,1.03-.72v.11c0,.37,.26,.6,.7,.6,.18,0,.31-.02,.46-.07v-.25c-.31,.04-.45-.08-.45-.36Zm-.72-.83c-.04,.64-.36,1.08-.8,1.08-.32,0-.53-.22-.53-.56,0-.3,.16-.53,.47-.67l.87-.39v.53Z"/>
        <path class="cls-1" d="M133.53,8.75c-.42,0-.79,.28-.95,.78v-.75l-1.23,.1v.24h.15c.23,.02,.37,.13,.37,.44v2.25c0,.31-.15,.42-.4,.43h-.11v.26h1.73v-.25h-.1c-.25-.02-.4-.13-.4-.44v-1.23c.01-.91,.41-1.49,.89-1.49,.11,0,.18,.03,.24,.1-.12,.07-.2,.19-.2,.34,0,.21,.18,.39,.39,.39s.39-.18,.39-.42c0-.46-.34-.75-.75-.75Z"/>
        <path class="cls-1" d="M137.89,9.19c.06-.03,.08-.05,.08-.12,0-.09-.05-.14-.15-.14h-.24v.49h.08v-.2h.13c.07,0,.09,.03,.1,.11,0,.05,0,.06,.02,.09h.09s-.02-.05-.02-.07c0-.12-.02-.14-.07-.16Zm-.09-.03h-.15v-.16h.14c.06,0,.09,.02,.09,.08s-.03,.08-.08,.08Z"/>
        <path class="cls-1" d="M115.82,11.89v-1.91c0-.78-.49-1.24-1.32-1.24-.71,0-1.34,.47-1.34,1,0,.23,.17,.4,.39,.4s.39-.18,.39-.39c0-.15-.08-.28-.2-.34,.13-.18,.37-.29,.65-.29,.45,0,.72,.34,.72,.9v.17l-1.08,.45c-.72,.3-.97,.56-.97,1.04,0,.55,.4,.9,1.02,.9,.47,0,.86-.29,1.03-.72v.11c0,.37,.26,.6,.7,.6,.18,0,.31-.02,.46-.07v-.25c-.31,.04-.45-.08-.45-.36Zm-.72-.83c-.04,.64-.36,1.08-.8,1.08-.32,0-.53-.22-.53-.56,0-.3,.16-.53,.47-.67l.87-.39v.53Z"/>
        <path class="cls-1" d="M120.45,11.59c-.1,.31-.27,.5-.5,.5-.31,0-.41-.23-.41-.49v-2.37h1v-.38h-1v-1.13h-.37c-.14,.85-.57,1.16-1.02,1.25v.26h.67v2.45c0,.57,.34,.89,.89,.89,.51,0,.85-.37,1-.91l-.26-.07Z"/>
        <path class="cls-1" d="M111.32,8.74c-.96,0-1.59,.91-1.59,1.92s.61,1.92,1.67,1.92c.74,0,1.16-.5,1.32-1.08l-.31-.09c-.15,.4-.4,.7-.91,.7-.59,0-.99-.56-.99-1.46h2.28v-.21c0-.94-.56-1.7-1.45-1.7Zm-.81,1.56c.07-.71,.37-1.14,.8-1.14,.4,0,.66,.37,.69,1.14h-1.49Z"/>
        <path class="cls-1" d="M117.67,11.81V7.28l-1.24,.11v.24h.16c.23,.01,.37,.13,.37,.44v3.74c0,.31-.15,.42-.4,.43h-.11v.26h1.73v-.25h-.1c-.25-.02-.4-.13-.4-.44Z"/>
      </g>
      <g>
        <path class="cls-1" d="M87.95,17.61h-.6v-1.53h-1.56v1.53h-.6v-3.41h.6v1.37h1.56v-1.37h.6v3.41Z"/>
        <path class="cls-1" d="M90.6,16.84c-.13,.53-.55,.84-1.12,.84-.73,0-1.22-.51-1.22-1.27s.5-1.33,1.2-1.33c.47,0,.86,.25,1.04,.67,.09,.2,.13,.44,.13,.76h-1.83c.02,.49,.26,.77,.69,.77,.3,0,.48-.13,.59-.43h.52Zm-.51-.7c-.04-.41-.28-.67-.63-.67s-.58,.24-.64,.67h1.27Z"/>
        <path class="cls-1" d="M93.26,17.62c-.16,.04-.27,.06-.36,.06-.22,0-.36-.1-.4-.3-.24,.2-.53,.3-.85,.3-.52,0-.85-.29-.85-.74,0-.25,.1-.46,.27-.56,.18-.11,.44-.17,1-.24,.32-.04,.43-.11,.43-.3,0-.22-.17-.34-.5-.34-.35,0-.51,.11-.56,.39h-.54c.04-.3,.1-.44,.28-.58,.18-.15,.47-.24,.82-.24,.61,0,1.01,.28,1.01,.7v1.3c0,.14,.03,.17,.15,.17,.03,0,.06,0,.11-.01v.38Zm-.81-1.24c-.12,.08-.17,.09-.54,.13-.41,.05-.57,.16-.57,.4,0,.22,.17,.35,.48,.35,.37,0,.63-.19,.63-.46v-.42Z"/>
        <path class="cls-1" d="M95,15.62c-.09-.01-.14-.02-.19-.02-.19,0-.35,.06-.48,.18-.17,.17-.22,.36-.22,.83v.99h-.55v-2.47h.51v.49c.2-.38,.45-.55,.84-.55,.02,0,.05,0,.1,0v.53Z"/>
        <path class="cls-1" d="M95.89,14.5c0,.18-.15,.33-.33,.33s-.33-.15-.33-.34c0-.18,.15-.33,.33-.33s.33,.15,.33,.35Zm-.06,3.11h-.55v-2.47h.55v2.47Z"/>
        <path class="cls-1" d="M96.86,15.51c.23-.3,.47-.43,.82-.43,.31,0,.59,.13,.72,.35,.09,.15,.12,.3,.12,.61v1.58h-.55v-1.44c0-.21-.01-.31-.05-.4-.06-.15-.21-.24-.42-.24-.24,0-.44,.12-.53,.32-.06,.12-.08,.27-.08,.53v1.24h-.55v-2.47h.51v.36Z"/>
        <path class="cls-1" d="M101.16,17.33c0,.4-.04,.6-.16,.8-.19,.3-.53,.46-1.03,.46-.67,0-1.04-.25-1.1-.76h.55c.05,.25,.23,.37,.57,.37,.46,0,.64-.21,.65-.73v-.29c-.17,.29-.42,.41-.78,.41-.65,0-1.07-.48-1.07-1.23s.44-1.28,1.1-1.28c.35,0,.58,.13,.77,.41v-.35h.51v2.18Zm-1.83-1.01c0,.52,.24,.83,.64,.83s.66-.32,.66-.83-.25-.81-.64-.81-.66,.31-.66,.81Z"/>
      </g>
    </g>
  </g>
</svg>