<svg width="90" height="90" viewBox="0 0 90 90" fill="none" xmlns="http://www.w3.org/2000/svg">
<circle cx="45" cy="45" r="45" fill="#002677"/>
<path d="M46.9331 15C36.5346 15.0279 28.1208 23.4677 28.125 33.8662V62.655C28.1022 68.3094 31.938 73.2508 37.4214 74.6308C42.9049 76.0109 48.6228 73.4741 51.2794 68.4825L64.0669 41.655C66.7078 35.8238 66.2125 29.0513 62.7511 23.6665C59.2898 18.2817 53.3345 15.0188 46.9331 15V15Z" fill="white"/>
<path d="M73.2413 33.8662C73.2413 24.4672 68.227 15.7822 60.0872 11.0827C51.9474 6.38323 41.9188 6.38323 33.7791 11.0827C25.6393 15.7822 20.625 24.4672 20.625 33.8662V56.25H39.375C44.5527 56.25 48.75 52.0527 48.75 46.875C48.75 41.6973 44.5527 37.5 39.375 37.5H37.9688V34.6875C37.9636 30.1726 41.3415 26.37 45.8255 25.8431C50.3095 25.3161 54.4771 28.2319 55.5188 32.625L58.1344 31.4644C56.5329 25.8423 51.0314 22.2616 45.2423 23.0737C39.4532 23.8857 35.1491 28.8417 35.1563 34.6875V37.5H24.375V33.8662C24.382 24.6801 29.9586 16.4157 38.4745 12.9712C46.9905 9.52668 56.7445 11.5901 63.1359 18.1882C69.5273 24.7864 71.2794 34.6011 67.5656 43.0031H67.5769L65.7319 46.875H67.3894C68.9107 46.8723 70.2958 45.9976 70.9519 44.625C72.4682 41.2413 73.2485 37.5741 73.2413 33.8662Z" fill="#00BED5"/>
</svg>
