<svg width="500" height="100" viewBox="0 0 500 100" fill="none" xmlns="http://www.w3.org/2000/svg">
<g clip-path="url(#clip0_404_6667)">
<path d="M15.8928 94.7312C19.0413 95.8098 22.3514 96.3867 25.9094 96.3867C40.9775 96.3867 51.4901 85.4559 51.4901 64.6731V2.73413L57.2048 0V65.746C57.2048 86.9441 46.277 99.2823 30.7995 99.2823C25.4134 99.2823 20.3619 97.6268 15.8928 94.7312Z" fill="#002677"/>
<path d="M9.35345 88.4379C12.8307 89.5973 16.308 90.3414 19.3701 90.3414C32.0335 90.3414 40.4816 82.3928 40.4816 64.4248V7.45229L46.1099 4.80469V64.9209C46.1099 83.7195 36.5892 93.3235 23.3433 93.3235C18.4589 93.3235 13.4939 91.5008 9.35345 88.4379Z" fill="#002677"/>
<path d="M5.38025 82.8084C8.44232 83.7197 11.2564 84.2966 13.7418 84.2966C23.5912 84.2966 29.6346 78.9148 29.6346 64.7539V12.2575L35.1821 9.60986V63.929C35.1821 79.8262 27.8989 87.0307 17.4671 87.0307C13.0787 87.0307 8.93825 85.5367 5.38025 82.8084Z" fill="#002677"/>
<path d="M24.4216 66.2423V14.4092L0 25.4207V67.4882C0 75.5176 5.05155 80.9051 12.502 80.9051C19.866 80.8993 24.4216 75.4368 24.4216 66.2423Z" fill="#002677"/>
<path d="M496.615 20.604C494.695 20.604 493.224 22.0749 493.224 24.013C493.224 25.9973 494.678 27.4855 496.615 27.4855C498.535 27.4855 500.006 25.98 500.006 24.0476C500 22.0922 498.53 20.604 496.615 20.604ZM496.615 26.9202C495.012 26.9202 493.836 25.7146 493.836 24.0419C493.836 22.3691 495.012 21.1462 496.627 21.1462C498.212 21.1462 499.389 22.3691 499.389 24.0245C499.389 25.7146 498.23 26.9202 496.615 26.9202Z" fill="#002677"/>
<path d="M199.115 20.6963C191.728 20.6963 186.815 27.7508 186.815 35.4802C186.815 43.2096 191.555 50.2641 199.675 50.2641C205.372 50.2641 208.59 46.3706 209.887 41.9694L207.46 41.2945C206.329 44.3401 204.357 46.7109 200.407 46.7109C195.84 46.7109 192.738 42.3674 192.738 35.4802H210.28V33.842C210.285 26.5625 205.995 20.6963 199.115 20.6963ZM192.853 32.7115C193.418 27.2374 195.673 23.9092 199.058 23.9092C202.16 23.9092 204.132 26.7875 204.363 32.7115H192.853Z" fill="#002677"/>
<path d="M264.497 12.171L265.345 12.2286C267.432 12.344 269.013 13.1862 269.013 15.5569V27.8605H254.233V15.5569C254.233 13.1862 255.813 12.3959 257.9 12.2286L258.69 12.171V10.1982H243.743V12.171L244.591 12.2286C246.678 12.344 248.258 13.1862 248.258 15.5569V44.3345C248.258 46.7052 246.678 47.5531 244.591 47.6627L243.743 47.7204V49.6931H258.69V47.7204L257.9 47.6627C255.813 47.4954 254.233 46.7052 254.233 44.3345V30.9061H269.013V44.3345C269.013 46.7052 267.432 47.5531 265.345 47.6627L264.497 47.7204V49.6931H279.444V47.7204L278.654 47.6627C276.567 47.4954 274.987 46.7052 274.987 44.3345V15.5569C274.987 13.1862 276.567 12.3959 278.654 12.2286L279.444 12.171V10.1982H264.497V12.171Z" fill="#002677"/>
<path d="M482.187 20.6963C474.8 20.6963 469.887 27.7508 469.887 35.4802C469.887 43.2096 474.627 50.2641 482.746 50.2641C488.444 50.2641 491.661 46.3706 492.959 41.9694L490.531 41.2945C489.401 44.3401 487.429 46.7109 483.479 46.7109C478.911 46.7109 475.809 42.3674 475.809 35.4802H493.351V33.842C493.357 26.5625 489.072 20.6963 482.187 20.6963ZM475.924 32.7115C476.489 27.2374 478.744 23.9092 482.129 23.9092C485.232 23.9092 487.204 26.7875 487.435 32.7115H475.924Z" fill="#002677"/>
<path d="M122.564 10.1982H109.421V12.171L110.269 12.2286C112.697 12.3959 114.219 14.1495 114.219 16.4048V35.9879C114.219 42.3617 110.892 46.2553 105.702 46.2553C100.454 46.2553 97.352 42.1368 97.352 35.9302V15.8395C97.352 13.6361 98.5341 12.3959 101.02 12.2286L101.81 12.171V10.1982H86.8625V12.171L87.7102 12.2286C90.1379 12.3959 91.3777 13.5842 91.3777 15.8395V36.7724C91.3777 44.5017 95.9449 50.5411 104.693 50.5411C112.195 50.5411 117.835 45.0093 117.835 36.6051V16.4048C117.835 14.2014 119.3 12.3959 121.785 12.2286L122.575 12.171V10.1982H122.564Z" fill="#002677"/>
<path d="M180.61 46.5379C178.24 46.5379 177.45 44.7901 177.45 42.7539V24.4745H185.177V21.5385H177.45V12.8516H174.63C173.558 19.3985 170.23 21.7692 166.73 22.5018V24.4745H171.92V43.3769C171.92 47.778 174.573 50.2641 178.805 50.2641C182.756 50.2641 185.35 47.3858 186.533 43.2673L184.503 42.702C183.713 45.0727 182.415 46.5379 180.61 46.5379Z" fill="#002677"/>
<path d="M160.081 16.4624C162.001 16.4624 163.691 14.8242 163.691 12.6842C163.691 10.6538 162.001 9.01562 160.081 9.01562C158.109 9.01562 156.471 10.6538 156.471 12.6842C156.471 14.8242 158.103 16.4624 160.081 16.4624Z" fill="#002677"/>
<path d="M148.404 44.3922V28.9911C148.404 24.59 145.693 20.9214 140.336 20.9214C136.559 20.9214 133.284 23.1768 131.986 27.1857V21.031L122.506 21.7635V23.6267L123.636 23.6844C125.383 23.7997 126.456 24.6419 126.456 27.0126V44.3922C126.456 46.7629 125.274 47.6109 123.354 47.7205L122.506 47.7781V49.6989H135.873V47.7781L135.083 47.7205C133.163 47.6051 131.98 46.7629 131.98 44.3922V35.14C132.096 28.3681 135.025 24.3073 138.468 24.3073C141.121 24.3073 142.868 26.1128 142.868 29.6141V44.398C142.868 46.7687 141.686 47.6166 139.765 47.7262L138.918 47.7839V49.7047H152.285V47.7839L151.495 47.7262C149.586 47.6109 148.404 46.7629 148.404 44.3922Z" fill="#002677"/>
<path d="M163.011 44.392V21.0308L153.254 21.7633V23.6265L154.666 23.6841C156.414 23.7418 157.486 24.6417 157.486 27.0124V44.392C157.486 46.7627 156.304 47.6106 154.384 47.7202L153.536 47.7779V49.6987H166.903V47.7779L166.113 47.7202C164.199 47.6106 163.011 46.7627 163.011 44.392Z" fill="#002677"/>
<path d="M238.04 44.3918V9.46533L228.45 10.3133V12.1764L229.69 12.2341C231.437 12.2918 232.51 13.1916 232.51 15.5623V25.7201C231.27 22.5591 228.392 20.696 224.667 20.696C217.274 20.696 213.099 27.7505 213.099 35.4799C213.099 43.2093 217.274 50.2638 224.667 50.2638C228.392 50.2638 231.27 48.343 232.51 45.0724V49.6985H241.932V47.7777L241.142 47.72C239.222 47.6105 238.04 46.7625 238.04 44.3918ZM225.63 47.0452C221.68 47.0452 219.085 42.5863 219.085 35.4742C219.085 28.362 221.68 23.9089 225.63 23.9089C229.805 23.9089 232.516 28.4254 232.516 35.4742C232.51 42.5287 229.805 47.0452 225.63 47.0452Z" fill="#002677"/>
<path d="M391.138 44.3918V28.9907C391.138 24.5896 388.428 20.921 383.07 20.921C379.293 20.921 376.018 23.1764 374.72 27.1853V9.46533L365.13 10.3133V12.1764L366.37 12.2341C368.118 12.2918 369.19 13.1916 369.19 15.5623V44.3976C369.19 46.7683 368.008 47.6162 366.088 47.7258L365.24 47.7835V49.7043H378.607V47.7835L377.817 47.7258C375.897 47.6105 374.715 46.7683 374.715 44.3976V35.1396C374.83 28.3677 377.759 24.3069 381.202 24.3069C383.855 24.3069 385.602 26.1124 385.602 29.6137V44.3976C385.602 46.7683 384.42 47.6162 382.5 47.7258L381.652 47.7835V49.7043H395.019V47.7835L394.229 47.7258C392.326 47.6105 391.138 46.7625 391.138 44.3918Z" fill="#002677"/>
<path d="M409.868 46.7051C405.301 46.7051 402.198 42.3617 402.198 35.4744C402.198 28.4776 405.243 24.0188 409.816 24.0188C411.846 24.0188 413.426 24.6937 414.383 25.9396C413.535 26.5049 412.97 27.4624 412.97 28.5353C412.97 30.1734 414.325 31.529 415.957 31.529C417.647 31.529 418.944 30.1734 418.944 28.2584C418.944 24.8725 415.559 20.6963 409.522 20.6963C401.114 20.6963 396.264 27.7508 396.264 35.4802C396.264 43.2096 401.004 50.2641 409.124 50.2641C414.706 50.2641 417.866 46.5378 419.106 42.3097L416.678 41.5772C415.623 44.4497 413.703 46.7051 409.868 46.7051Z" fill="#002677"/>
<path d="M442.42 45.015V30.2888C442.42 24.2495 438.643 20.6963 432.265 20.6963C426.793 20.6963 421.943 24.3072 421.943 28.4257C421.943 30.1734 423.241 31.529 424.93 31.529C426.568 31.529 427.917 30.1734 427.917 28.5353C427.917 27.4047 427.3 26.3895 426.395 25.8819C427.41 24.4687 429.215 23.6265 431.418 23.6265C434.86 23.6265 436.948 26.2222 436.948 30.5657V31.8635L428.598 35.3071C423.016 37.6202 421.095 39.6506 421.095 43.3192C421.095 47.553 424.14 50.2583 428.938 50.2583C432.548 50.2583 435.541 48.0549 436.89 44.7266V45.5745C436.89 48.4529 438.92 50.2006 442.305 50.2006C443.66 50.2006 444.733 50.0334 445.857 49.693V47.7722C443.493 48.0606 442.42 47.1608 442.42 45.015ZM436.89 38.6412C436.608 43.6076 434.128 46.9358 430.685 46.9358C428.206 46.9358 426.626 45.2458 426.626 42.6501C426.626 40.337 427.865 38.5316 430.236 37.5164L436.948 34.5284L436.89 38.6412Z" fill="#002677"/>
<path d="M464.022 20.8057C460.752 20.8057 457.927 22.9514 456.687 26.7873V21.0306L447.212 21.7632V23.6263L448.343 23.684C450.09 23.7994 451.163 24.6415 451.163 27.0122V44.3918C451.163 46.7626 449.98 47.6105 448.06 47.7201L447.212 47.7778V49.6986H460.579V47.7778L459.789 47.7201C457.869 47.6047 456.687 46.7626 456.687 44.3918V34.9147C456.802 27.8602 459.847 23.459 463.572 23.459C464.42 23.459 464.985 23.684 465.435 24.1916C464.478 24.6992 463.855 25.6567 463.855 26.845C463.855 28.4831 465.21 29.8329 466.842 29.8329C468.48 29.8329 469.835 28.4774 469.835 26.5623C469.835 23.0091 467.182 20.8057 464.022 20.8057Z" fill="#002677"/>
<path d="M497.636 24.14C498.08 23.9439 498.23 23.7247 498.23 23.2113C498.23 22.5192 497.814 22.1558 497.042 22.1558H495.225V25.9397H495.819V24.4169H496.846C497.394 24.4169 497.555 24.6303 497.59 25.2418C497.607 25.6398 497.607 25.6744 497.705 25.9339H498.385C498.305 25.8705 498.201 25.5705 498.201 25.3744C498.166 24.4746 498.086 24.3073 497.636 24.14ZM496.978 23.9266H495.819V22.6864H496.926C497.405 22.6864 497.618 22.871 497.618 23.2806C497.618 23.6959 497.388 23.9266 496.978 23.9266Z" fill="#002677"/>
<path d="M327.451 45.015V30.2888C327.451 24.2495 323.674 20.6963 317.296 20.6963C311.824 20.6963 306.974 24.3072 306.974 28.4257C306.974 30.1734 308.272 31.529 309.961 31.529C311.599 31.529 312.954 30.1734 312.954 28.5353C312.954 27.4047 312.331 26.3895 311.432 25.8819C312.447 24.4687 314.252 23.6265 316.455 23.6265C319.897 23.6265 321.985 26.2222 321.985 30.5657V31.8635L313.635 35.3071C308.053 37.6202 306.132 39.6506 306.132 43.3192C306.132 47.553 309.177 50.2583 313.975 50.2583C317.585 50.2583 320.578 48.0549 321.927 44.7266V45.5745C321.927 48.4529 323.957 50.2006 327.342 50.2006C328.697 50.2006 329.77 50.0334 330.894 49.693V47.7722C328.524 48.0606 327.451 47.1608 327.451 45.015ZM321.921 38.6412C321.639 43.6076 319.159 46.9358 315.716 46.9358C313.237 46.9358 311.657 45.2458 311.657 42.6501C311.657 40.337 312.897 38.5316 315.267 37.5164L321.979 34.5284L321.921 38.6412Z" fill="#002677"/>
<path d="M363.216 42.702C362.426 45.0727 361.128 46.5379 359.324 46.5379C356.953 46.5379 356.163 44.7901 356.163 42.7539V24.4745H363.891V21.5385H356.163V12.8516H353.344C352.271 19.3985 348.944 21.7692 345.443 22.5018V24.4745H350.633V43.3769C350.633 47.778 353.286 50.2641 357.519 50.2641C361.469 50.2641 364.064 47.3858 365.246 43.2673L363.216 42.702Z" fill="#002677"/>
<path d="M292.817 20.6963C285.424 20.6963 280.517 27.7508 280.517 35.4802C280.517 43.2096 285.257 50.2641 293.382 50.2641C299.08 50.2641 302.297 46.3706 303.595 41.9694L301.167 41.2945C300.037 44.3401 298.065 46.7109 294.115 46.7109C289.547 46.7109 286.445 42.3674 286.445 35.4802H303.987V33.842C303.987 26.5625 299.697 20.6963 292.817 20.6963ZM286.555 32.7115C287.12 27.2374 289.374 23.9092 292.76 23.9092C295.862 23.9092 297.834 26.7875 298.059 32.7115H286.555Z" fill="#002677"/>
<path d="M341.724 44.3918V9.46533L332.134 10.3133V12.1764L333.374 12.2341C335.121 12.2918 336.194 13.1916 336.194 15.5623V44.3976C336.194 46.7683 335.011 47.6162 333.091 47.7258L332.244 47.7835V49.7043H345.611V47.7835L344.82 47.7258C342.906 47.6105 341.724 46.7625 341.724 44.3918Z" fill="#002677"/>
<path d="M112.57 89.1476H107.957V77.3112H95.9276V89.1476H91.3143V62.833H95.9276V73.3658H107.957V62.833H112.57V89.1476Z" fill="#002677"/>
<path d="M133.03 83.1886C132.044 87.2495 128.809 89.6548 124.392 89.6548C118.752 89.6548 115.004 85.7497 115.004 79.8315C115.004 73.873 118.867 69.5757 124.236 69.5757C127.863 69.5757 130.862 71.4677 132.28 74.744C132.99 76.3245 133.301 78.1357 133.266 80.6218H119.184C119.346 84.4115 121.197 86.54 124.467 86.54C126.756 86.54 128.134 85.5132 129.005 83.1886H133.03ZM129.091 77.8242C128.815 74.669 126.964 72.6963 124.201 72.6963C121.439 72.6963 119.703 74.5133 119.271 77.8242H129.091Z" fill="#002677"/>
<path d="M153.496 89.1821C152.273 89.4994 151.408 89.6551 150.734 89.6551C148.998 89.6551 147.971 88.9053 147.62 87.3305C145.803 88.8706 143.56 89.6551 141.034 89.6551C137.049 89.6551 134.489 87.4459 134.489 83.9734C134.489 82.0815 135.239 80.426 136.536 79.6357C137.92 78.7705 139.967 78.2918 144.229 77.8188C146.714 77.5419 147.539 76.9535 147.539 75.4884C147.539 73.7925 146.201 72.8812 143.675 72.8812C140.994 72.8812 139.731 73.7522 139.373 75.8806H135.192C135.469 73.5907 135.983 72.4889 137.366 71.3814C138.785 70.199 140.994 69.5645 143.716 69.5645C148.41 69.5645 151.489 71.6929 151.489 74.9693V84.9886C151.489 86.0558 151.725 86.3326 152.671 86.3326C152.867 86.3326 153.104 86.3326 153.496 86.2519V89.1821ZM147.268 79.5954C146.322 80.1895 145.965 80.2645 143.127 80.5817C139.973 80.9797 138.71 81.845 138.71 83.6562C138.71 85.352 140.054 86.3384 142.378 86.3384C145.215 86.3384 147.268 84.879 147.268 82.8256V79.5954Z" fill="#002677"/>
<path d="M166.943 73.7578C166.234 73.6771 165.877 73.6367 165.444 73.6367C163.945 73.6367 162.722 74.1097 161.736 75.0557C160.398 76.3593 160 77.8187 160 81.4872V89.1416H155.779V70.0835H159.724V73.8732C161.263 70.9545 163.195 69.6509 166.188 69.6509C166.309 69.6509 166.586 69.6509 166.938 69.6913V73.7578H166.943Z" fill="#002677"/>
<path d="M173.771 65.1574C173.771 66.5418 172.624 67.6839 171.205 67.6839C169.821 67.6839 168.679 66.5014 168.679 65.0421C168.679 63.6635 169.861 62.481 171.245 62.481C172.664 62.4752 173.771 63.6577 173.771 65.1574ZM173.333 89.1474H169.112V70.0892H173.333V89.1474Z" fill="#002677"/>
<path d="M181.256 72.8866C182.992 70.562 184.849 69.5757 187.605 69.5757C190.01 69.5757 192.144 70.6024 193.13 72.2579C193.839 73.4058 194.075 74.5882 194.075 76.9936V89.1414H189.854V78.0549C189.854 76.3995 189.773 75.69 189.497 74.9401C189.064 73.798 187.842 73.0885 186.227 73.0885C184.37 73.0885 182.83 74.0345 182.127 75.5342C181.694 76.4802 181.533 77.5877 181.533 79.595V89.1414H177.312V70.0833H181.256V72.8866Z" fill="#002677"/>
<path d="M214.42 86.9381C214.42 90.0529 214.103 91.593 213.157 93.0927C211.698 95.4231 209.057 96.6056 205.228 96.6056C200.061 96.6056 197.184 94.6732 196.711 90.7682H200.932C201.324 92.7005 202.708 93.6061 205.349 93.6061C208.896 93.6061 210.32 91.991 210.36 88.0052L210.401 85.7556C209.017 87.9648 207.085 88.9512 204.328 88.9512C199.283 88.9512 196.048 85.2422 196.048 79.4452C196.048 73.527 199.438 69.5815 204.565 69.5815C207.246 69.5815 209.063 70.5679 210.481 72.7771V70.0949H214.426V86.9381H214.42ZM200.303 79.1625C200.303 83.1887 202.154 85.5941 205.274 85.5941C208.388 85.5941 210.36 83.108 210.36 79.1625C210.36 75.3382 208.428 72.9271 205.389 72.9271C202.235 72.9271 200.303 75.2978 200.303 79.1625Z" fill="#002677"/>
</g>
<defs>
<clipPath id="clip0_404_6667">
<rect width="500" height="99.2823" fill="white"/>
</clipPath>
</defs>
</svg>
