<svg width="185" height="74" viewBox="0 0 185 74" fill="none" xmlns="http://www.w3.org/2000/svg">
<path d="M11.7648 70.1311C14.0835 70.9326 16.5452 71.3619 19.1787 71.3619C30.3424 71.3619 38.1284 63.2611 38.1284 47.8895V2.03237L42.3649 0V48.691C42.3649 64.3775 34.264 73.5374 22.8141 73.5374C18.8352 73.5088 15.0853 72.2779 11.7648 70.1311ZM6.92723 65.4938C9.50348 66.3526 12.0797 66.8965 14.3411 66.8965C23.7301 66.8965 29.9703 60.9997 29.9703 47.7178V5.52461L34.1495 3.54949V48.0613C34.1495 61.973 27.1078 69.1006 17.2895 69.1006C13.6827 69.1006 9.9901 67.7552 6.92723 65.4938ZM3.97886 61.3146C6.24023 62.0016 8.32985 62.431 10.1618 62.431C17.4612 62.431 21.9267 58.4521 21.9267 47.9468V9.0741L26.0487 7.12761V47.3456C26.0487 59.1105 20.6672 64.4633 12.9385 64.4633C9.67522 64.4347 6.61236 63.3183 3.97886 61.3146ZM18.091 49.0631V10.6771L0 18.8352V49.9791C0 55.9331 3.74986 59.912 9.24585 59.912C14.7132 59.912 18.091 55.8472 18.091 49.0631Z" fill="#002677"/>
<path d="M59.311 7.95759V18.3484C59.311 22.1842 61.5724 25.1898 65.9233 25.1898C69.6446 25.1898 72.4498 22.4418 72.4498 18.2626V8.24384C72.4498 7.15609 73.1655 6.24009 74.425 6.18284L74.8257 6.15422V5.15234H68.2992V6.12559L68.7286 6.15422C69.9308 6.24009 70.7037 7.09884 70.7037 8.21521V17.9477C70.7037 21.1251 69.0435 23.0429 66.4672 23.0429C63.8624 23.0429 62.3166 21.0106 62.3166 17.9191V7.95759C62.3166 6.86984 62.9177 6.24009 64.1486 6.15422L64.5494 6.12559V5.15234H57.1355V6.12559L57.5649 6.15422C58.7099 6.26872 59.311 6.84121 59.311 7.95759Z" fill="#002677"/>
<path d="M68.1275 30.1134L68.5569 30.142C69.5874 30.1993 70.3888 30.6286 70.3888 31.8023V37.8994H63.0609V31.8023C63.0609 30.6286 63.8337 30.2279 64.8929 30.142L65.2936 30.1134V29.1401H57.8225V30.1134L58.2519 30.142C59.2824 30.1993 60.0839 30.6286 60.0839 31.8023V46.0861C60.0839 47.2597 59.311 47.6891 58.2519 47.7463L57.8225 47.775V48.7482H65.2364V47.775L64.8356 47.7463C63.8051 47.6605 63.0036 47.2597 63.0036 46.0861V39.4165H70.3316V46.0861C70.3316 47.2597 69.5587 47.6891 68.4996 47.7463L68.0702 47.775V48.7482H75.4841V47.775L75.0833 47.7463C74.0528 47.6605 73.2513 47.2597 73.2513 46.0861V31.8023C73.2513 30.6286 74.0242 30.2279 75.0833 30.142L75.4841 30.1134V29.1401H68.1275V30.1134Z" fill="#002677"/>
<path d="M74.7686 10.9064V11.8224L75.3411 11.851C76.1998 11.9083 76.7437 12.3377 76.7437 13.5113V22.1274C76.7437 23.301 76.1712 23.7304 75.1979 23.7876L74.7686 23.8163V24.7609H81.4095V23.8163L81.0088 23.7876C80.0642 23.7304 79.463 23.301 79.463 22.1274V17.5474C79.5203 14.1983 80.9802 12.1659 82.669 12.1659C83.9858 12.1659 84.8445 13.0533 84.8445 14.7994V22.1274C84.8445 23.301 84.272 23.7304 83.2988 23.7876L82.8694 23.8163V24.7609H89.5104V23.8163L89.1096 23.7876C88.165 23.7304 87.5639 23.301 87.5639 22.1274V14.4845C87.5639 12.309 86.2185 10.4771 83.5564 10.4771C81.6958 10.4771 80.0642 11.5934 79.4058 13.5972V10.5343L74.7686 10.9064Z" fill="#002677"/>
<path d="M113.069 25.0469C115.903 25.0469 117.506 23.1004 118.135 20.9249L116.933 20.5814C116.361 22.0985 115.387 23.2721 113.441 23.2721C111.179 23.2721 109.634 21.1253 109.634 17.6903H118.336V16.8888C118.336 13.282 116.217 10.3623 112.782 10.3623C109.118 10.3623 106.685 13.8545 106.685 17.6903C106.685 21.5546 109.033 25.0469 113.069 25.0469ZM112.782 11.9653C114.328 11.9653 115.301 13.3965 115.416 16.3449H109.691C109.977 13.6255 111.094 11.9653 112.782 11.9653Z" fill="#002677"/>
<path d="M99.2999 21.6404C99.2999 23.8159 100.617 25.0468 102.706 25.0468C104.681 25.0468 105.97 23.6156 106.542 21.5832L105.54 21.2969C105.139 22.4706 104.51 23.2148 103.594 23.2148C102.42 23.2148 102.019 22.3561 102.019 21.3256V12.2515H105.855V10.7916H102.019V6.46924H100.617C100.073 9.73248 98.4412 10.9061 96.6951 11.2496V12.2228H99.2713L99.2999 21.6404Z" fill="#002677"/>
<path d="M93.432 8.27269C94.3767 8.27269 95.2354 7.4712 95.2354 6.41207C95.2354 5.4102 94.4053 4.58008 93.432 4.58008C92.4588 4.58008 91.6287 5.38158 91.6287 6.41207C91.6287 7.4712 92.4302 8.27269 93.432 8.27269Z" fill="#002677"/>
<path d="M92.1439 13.5112V22.1273C92.1439 23.3009 91.5714 23.7303 90.5981 23.7875L90.1688 23.8161V24.7608H96.8097V23.8161L96.409 23.7875C95.4644 23.7303 94.8632 23.3009 94.8632 22.1273V10.5342L90.0256 10.9063V11.8223L90.7413 11.8509C91.6 11.8796 92.1439 12.3376 92.1439 13.5112Z" fill="#002677"/>
<path d="M125.492 25.0469C127.352 25.0469 128.784 24.1023 129.385 22.4707V24.7607H134.051V23.816L133.65 23.7874C132.705 23.7302 132.104 23.3008 132.104 22.1272V4.80908L127.352 5.23846V6.15445L127.953 6.18308C128.812 6.2117 129.356 6.6697 129.356 7.84332V12.8813C128.755 11.3069 127.324 10.3909 125.463 10.3909C121.799 10.3909 119.709 13.8832 119.709 17.7189C119.709 21.5547 121.799 25.0469 125.492 25.0469ZM125.95 11.9653C128.011 11.9653 129.356 14.1981 129.356 17.6903C129.356 21.1825 128.011 23.4439 125.95 23.4439C123.975 23.4439 122.686 21.2398 122.686 17.6903C122.686 14.1408 124.003 11.9653 125.95 11.9653Z" fill="#002677"/>
<path d="M167.17 34.4072C165.538 34.4072 164.135 35.4664 163.534 37.3842V34.5217L158.84 34.8939V35.8098L159.412 35.8385C160.271 35.8957 160.815 36.3251 160.815 37.4987V46.1148C160.815 47.2884 160.242 47.7178 159.269 47.7751L158.84 47.8037V48.7483H165.452V47.8037L165.051 47.7751C164.107 47.7178 163.506 47.2884 163.506 46.1148V41.4203C163.563 37.9281 165.08 35.724 166.912 35.724C167.341 35.724 167.628 35.8385 167.828 36.0961C167.341 36.3537 167.055 36.8117 167.055 37.4128C167.055 38.2143 167.714 38.9013 168.544 38.9013C169.345 38.9013 170.032 38.2143 170.032 37.2697C170.061 35.495 168.744 34.4072 167.17 34.4072Z" fill="#002677"/>
<path d="M176.187 34.3501C172.523 34.3501 170.089 37.8423 170.089 41.6781C170.089 45.5138 172.437 49.0061 176.473 49.0061C179.307 49.0061 180.91 47.0596 181.539 44.8841L180.337 44.5406C179.765 46.0577 178.791 47.2313 176.845 47.2313C174.584 47.2313 173.038 45.0844 173.038 41.6495H181.74V40.848C181.711 37.2698 179.593 34.3501 176.187 34.3501ZM173.066 40.3041C173.353 37.5847 174.469 35.9245 176.158 35.9245C177.704 35.9245 178.677 37.3557 178.791 40.3041H173.066Z" fill="#002677"/>
<path d="M156.435 46.4295V39.1302C156.435 36.1245 154.575 34.3784 151.397 34.3784C148.678 34.3784 146.274 36.1818 146.274 38.2142C146.274 39.0729 146.903 39.7599 147.762 39.7599C148.564 39.7599 149.251 39.0729 149.251 38.2714C149.251 37.6989 148.936 37.2123 148.506 36.9547C149.022 36.2677 149.909 35.8383 150.997 35.8383C152.714 35.8383 153.745 37.1264 153.745 39.2733V39.903L149.594 41.6205C146.817 42.7655 145.873 43.7674 145.873 45.5994C145.873 47.689 147.39 49.0344 149.766 49.0344C151.569 49.0344 153.058 47.9466 153.716 46.2864V46.7158C153.716 48.147 154.718 49.0058 156.407 49.0058C157.065 49.0058 157.609 48.9199 158.182 48.7481V47.8035C156.979 47.918 156.435 47.4886 156.435 46.4295ZM153.687 43.2521C153.544 45.7139 152.313 47.3741 150.596 47.3741C149.365 47.3741 148.592 46.544 148.592 45.2559C148.592 44.1109 149.222 43.2235 150.396 42.7083L153.716 41.2198L153.687 43.2521Z" fill="#002677"/>
<path d="M117.133 45.285C116.732 46.4587 116.103 47.1743 115.187 47.1743C114.013 47.1743 113.612 46.3155 113.612 45.285V36.2109H117.448V34.7511H113.612V30.4287H112.21C111.666 33.6633 110.034 34.8656 108.288 35.2091V36.1823H110.864V45.5713C110.864 47.7468 112.181 48.9777 114.271 48.9777C116.246 48.9777 117.534 47.5464 118.106 45.514L117.133 45.285Z" fill="#002677"/>
<path d="M99.3573 46.4295V39.1302C99.3573 36.1245 97.4967 34.3784 94.3193 34.3784C91.5999 34.3784 89.1954 36.1818 89.1954 38.2142C89.1954 39.0729 89.8252 39.7599 90.6839 39.7599C91.4854 39.7599 92.1724 39.0729 92.1724 38.2714C92.1724 37.6989 91.8575 37.2123 91.4282 36.9547C91.9434 36.2677 92.8308 35.8383 93.9185 35.8383C95.636 35.8383 96.6665 37.1264 96.6665 39.2733V39.903L92.5159 41.6205C89.7393 42.7655 88.7947 43.7674 88.7947 45.5994C88.7947 47.689 90.3118 49.0344 92.6877 49.0344C94.491 49.0344 95.9795 47.9466 96.6379 46.2864V46.7158C96.6379 48.147 97.6398 49.0058 99.3286 49.0058C100.016 49.0058 100.531 48.9199 101.103 48.7481V47.8035C99.9011 47.918 99.3573 47.4886 99.3573 46.4295ZM96.6379 43.2521C96.4948 45.7139 95.2639 47.3741 93.5464 47.3741C92.3155 47.3741 91.5427 46.544 91.5427 45.2559C91.5427 44.1109 92.1438 43.2235 93.346 42.7083L96.6665 41.2198L96.6379 43.2521Z" fill="#002677"/>
<path d="M140.291 47.2598C138.03 47.2598 136.484 45.1129 136.484 41.6779C136.484 38.2143 138.001 35.9815 140.262 35.9815C141.264 35.9815 142.066 36.325 142.524 36.9262C142.094 37.2124 141.808 37.6704 141.808 38.2143C141.808 39.0158 142.495 39.7028 143.296 39.7028C144.127 39.7028 144.785 39.0158 144.785 38.0712C144.785 36.3823 143.096 34.3213 140.119 34.3213C135.94 34.3213 133.535 37.8135 133.535 41.6493C133.535 45.485 135.883 48.9772 139.919 48.9772C142.695 48.9772 144.27 47.1166 144.871 45.027L143.669 44.6549C143.125 46.1434 142.18 47.2598 140.291 47.2598Z" fill="#002677"/>
<path d="M106.456 46.1148V28.7681L101.705 29.1974V30.1134L102.306 30.1421C103.164 30.1707 103.708 30.6287 103.708 31.8023V46.1148C103.708 47.2884 103.136 47.7178 102.163 47.775L101.733 47.8036V48.7483H108.374V47.8036L107.973 47.775C107.057 47.7178 106.456 47.2884 106.456 46.1148Z" fill="#002677"/>
<path d="M130.988 46.115V38.4721C130.988 36.2966 129.642 34.4646 126.98 34.4646C125.12 34.4646 123.488 35.581 122.83 37.5847V28.7969L118.078 29.2262V30.1422L118.679 30.1709C119.538 30.1995 120.082 30.6575 120.082 31.8311V46.1436C120.082 47.3172 119.509 47.7466 118.536 47.8038L118.107 47.8325V48.7771H124.747V47.8038L124.347 47.7752C123.402 47.7179 122.801 47.2886 122.801 46.115V41.535C122.858 38.1859 124.318 36.1535 126.007 36.1535C127.324 36.1535 128.182 37.0409 128.182 38.787V46.115C128.182 47.2886 127.61 47.7179 126.637 47.7752L126.207 47.8038V48.7484H132.848V47.8038L132.448 47.7752C131.56 47.7179 130.988 47.2886 130.988 46.115Z" fill="#002677"/>
<path d="M82.1823 34.3501C78.5183 34.3501 76.0852 37.8423 76.0852 41.6781C76.0852 45.5138 78.4325 49.0061 82.4686 49.0061C85.3024 49.0061 86.9054 47.0596 87.5352 44.8841L86.3329 44.5406C85.7604 46.0577 84.7872 47.2313 82.8407 47.2313C80.5793 47.2313 79.0336 45.0844 79.0336 41.6495H87.7356V40.848C87.7356 37.2698 85.5887 34.3501 82.1823 34.3501ZM79.0622 40.3041C79.3485 37.5847 80.4648 35.9245 82.1537 35.9245C83.6994 35.9245 84.6727 37.3557 84.7872 40.3041H79.0622Z" fill="#002677"/>
<path d="M69.8451 68.2373H67.5551V62.377H61.5725V68.2373H59.2825V55.2017H61.5725V60.4331H67.5551V55.2017H69.8451V68.2373Z" fill="#002677"/>
<path d="M80.007 65.2929C79.5203 67.294 77.9173 68.4946 75.7132 68.4946C72.908 68.4946 71.0474 66.5507 71.0474 63.6349C71.0474 60.6904 72.9652 58.5464 75.6274 58.5464C77.4307 58.5464 78.9192 59.4898 79.6348 61.1192C79.9783 61.8911 80.1501 62.8058 80.1215 64.0351H73.137C73.2229 65.9218 74.1389 66.9795 75.7705 66.9795C76.9155 66.9795 77.6025 66.465 78.0319 65.3215L80.007 65.2929ZM78.0319 62.6343C77.8887 61.062 76.9727 60.0901 75.5987 60.0901C74.2247 60.0901 73.366 60.9763 73.137 62.6343H78.0319Z" fill="#002677"/>
<path d="M90.1401 68.2374C89.5389 68.4089 89.1096 68.4661 88.7661 68.4661C87.9073 68.4661 87.3921 68.0944 87.2203 67.3226C86.333 68.0944 85.2166 68.4661 83.9571 68.4661C81.982 68.4661 80.6938 67.3798 80.6938 65.636C80.6938 64.6926 81.066 63.8921 81.6957 63.4919C82.3827 63.0631 83.4132 62.8344 85.5028 62.6057C86.7337 62.4628 87.1345 62.1769 87.1345 61.4623C87.1345 60.6332 86.4761 60.1758 85.2166 60.1758C83.8998 60.1758 83.2701 60.6046 83.0697 61.6624H81.0087C81.1518 60.5189 81.4095 59.9757 82.0965 59.4326C82.8121 58.8323 83.8998 58.5464 85.2452 58.5464C87.5638 58.5464 89.1096 59.6041 89.1096 61.2336V66.2077C89.1096 66.7508 89.2241 66.8652 89.6821 66.8652C89.7679 66.8652 89.9111 66.8652 90.0828 66.8366L90.1401 68.2374ZM87.0486 63.4919C86.5906 63.7778 86.3902 63.835 84.9876 63.9779C83.4132 64.178 82.7835 64.6068 82.7835 65.493C82.7835 66.322 83.4418 66.808 84.6155 66.808C86.0181 66.808 87.0486 66.0933 87.0486 65.0642V63.4919Z" fill="#002677"/>
<path d="M96.8383 60.6046C96.4948 60.576 96.2945 60.5474 96.0941 60.5474C95.3498 60.5474 94.7487 60.7761 94.2621 61.2621C93.6037 61.9196 93.4033 62.6343 93.4033 64.4353V68.2373H91.3137V58.8036H93.2602V60.6904C94.0331 59.2324 94.9777 58.6035 96.4662 58.6035C96.5235 58.6035 96.6666 58.6035 96.8383 58.6321V60.6046Z" fill="#002677"/>
<path d="M100.216 56.3453C100.216 57.0314 99.6436 57.6031 98.928 57.6031C98.241 57.6031 97.6685 57.0028 97.6685 56.2881C97.6685 55.602 98.241 55.0303 98.9566 55.0303C99.6722 55.0017 100.216 55.602 100.216 56.3453ZM99.9871 68.2374H97.8975V58.8038H99.9871V68.2374Z" fill="#002677"/>
<path d="M103.937 60.1758C104.796 59.0324 105.712 58.5464 107.086 58.5464C108.288 58.5464 109.348 59.0609 109.834 59.8614C110.178 60.4331 110.292 61.0049 110.292 62.2055V68.2374H108.203V62.7487C108.203 61.9196 108.174 61.5766 108.031 61.205C107.802 60.6332 107.201 60.2902 106.399 60.2902C105.483 60.2902 104.71 60.7476 104.367 61.4908C104.138 61.9482 104.081 62.52 104.081 63.4919V68.2374H101.991V58.8037H103.937V60.1758V60.1758Z" fill="#002677"/>
<path d="M120.397 67.1227C120.397 68.6664 120.254 69.4383 119.767 70.1815C119.051 71.325 117.735 71.9253 115.817 71.9253C113.241 71.9253 111.809 70.9534 111.58 69.0381H113.67C113.87 70.01 114.557 70.4388 115.874 70.4388C117.62 70.4388 118.336 69.6384 118.364 67.6659L118.393 66.551C117.706 67.6373 116.733 68.1233 115.387 68.1233C112.868 68.1233 111.265 66.2937 111.265 63.4064C111.265 60.462 112.954 58.5181 115.502 58.5181C116.819 58.5181 117.735 59.004 118.45 60.0903V58.7754H120.397V67.1227ZM113.384 63.2921C113.384 65.2932 114.3 66.4652 115.845 66.4652C117.391 66.4652 118.364 65.236 118.364 63.2921C118.364 61.4053 117.391 60.2047 115.903 60.2047C114.357 60.2047 113.384 61.3768 113.384 63.2921Z" fill="#002677"/>
<path d="M183.319 34.2705C182.367 34.2705 181.638 34.9994 181.638 35.9599C181.638 36.9432 182.359 37.6808 183.319 37.6808C184.271 37.6808 185 36.9347 185 35.9771C184.997 35.008 184.268 34.2705 183.319 34.2705ZM183.319 37.4006C182.524 37.4006 181.941 36.8032 181.941 35.9742C181.941 35.1452 182.524 34.5392 183.325 34.5392C184.111 34.5392 184.694 35.1452 184.694 35.9656C184.694 36.8032 184.12 37.4006 183.319 37.4006Z" fill="#002677"/>
<path d="M183.825 36.0229C184.045 35.9257 184.119 35.8171 184.119 35.5627C184.119 35.2196 183.914 35.0396 183.531 35.0396H182.63V36.9148H182.925V36.1601H183.433C183.705 36.1601 183.785 36.2659 183.802 36.5689C183.811 36.7661 183.811 36.7833 183.859 36.9119H184.197C184.157 36.8805 184.105 36.7318 184.105 36.6346C184.088 36.1887 184.048 36.1058 183.825 36.0229ZM183.499 35.9171H182.925V35.3025H183.473C183.711 35.3025 183.816 35.394 183.816 35.597C183.816 35.8028 183.702 35.9171 183.499 35.9171Z" fill="#002677"/>
</svg>
