<svg width="22" height="18" viewBox="0 0 22 18" fill="none" xmlns="http://www.w3.org/2000/svg">
<path fill-rule="evenodd" clip-rule="evenodd" d="M22 9C22 9.23 21.98 9.45 21.94 9.66C21.69 11.18 20.58 12.4 19.14 12.83C18.62 13.93 17.87 14.92 16.97 15.72C15.38 17.14 13.29 18 11 18C8.71 18 6.62 17.14 5.04 15.72C4.14 14.92 3.39 13.94 2.87 12.83C1.42 12.4 0.31 11.17 0.06 9.66C0.02 9.45 0 9.23 0 9C0 8.77 0.02 8.55 0.06 8.34C0.31 6.82 1.42 5.6 2.87 5.17C3.39 4.06 4.14 3.07 5.06 2.26C6.64 0.85 8.72 0 11 0C13.28 0 15.36 0.85 16.94 2.26C17.85 3.07 18.6 4.05 19.13 5.17C20.58 5.6 21.69 6.83 21.94 8.34C21.98 8.55 22 8.77 22 9ZM9.75 7.5C9.75 8.19036 9.19036 8.75 8.5 8.75C7.80964 8.75 7.25 8.19036 7.25 7.5C7.25 6.80964 7.80964 6.25 8.5 6.25C9.19036 6.25 9.75 6.80964 9.75 7.5ZM14.75 7.5C14.75 8.19036 14.1904 8.75 13.5 8.75C12.8096 8.75 12.25 8.19036 12.25 7.5C12.25 6.80964 12.8096 6.25 13.5 6.25C14.1904 6.25 14.75 6.80964 14.75 7.5ZM18 11C17.9348 11 17.8738 10.9915 17.8115 10.9828C17.7783 10.9782 17.7448 10.9735 17.71 10.97C17.51 11.64 17.22 12.26 16.85 12.83C15.6 14.74 13.45 16 11 16C8.55 16 6.4 14.74 5.15 12.83C4.78 12.26 4.49 11.64 4.29 10.97C4.25525 10.9735 4.2217 10.9782 4.18853 10.9828C4.12624 10.9915 4.06525 11 4 11C2.9 11 2 10.1 2 9C2 7.9 2.9 7 4 7C4.06525 7 4.12624 7.00851 4.18853 7.01721L4.18854 7.01721C4.22171 7.02184 4.25525 7.02653 4.29 7.03C4.49 6.36 4.78 5.74 5.15 5.17C6.4 3.26 8.55 2 11 2C13.45 2 15.6 3.26 16.85 5.17C17.22 5.74 17.51 6.36 17.71 7.03C17.7448 7.02653 17.7783 7.02184 17.8115 7.01721C17.8738 7.00851 17.9348 7 18 7C19.1 7 20 7.9 20 9C20 10.1 19.1 11 18 11ZM11 14C8.99 14 7.26 12.77 6.5 11H15.5C14.74 12.77 13.01 14 11 14Z" fill="#196ECF"/>
</svg>
