<svg width="41" height="58" viewBox="0 0 41 58" fill="none" xmlns="http://www.w3.org/2000/svg">
<path d="M20.3 54.9455C19.8429 54.4048 19.2958 53.7475 18.681 52.99C16.8037 50.6769 14.3038 47.44 11.8079 43.7408C9.30819 40.0358 6.83713 35.9032 4.99708 31.796C3.14529 27.6625 2 23.7016 2 20.3C2 10.1816 10.1816 2 20.3 2C30.4184 2 38.6 10.1816 38.6 20.3C38.6 23.7016 37.4547 27.6625 35.6029 31.796C33.7629 35.9032 31.2918 40.0358 28.7921 43.7408C26.2962 47.44 23.7963 50.6769 21.919 52.99C21.3042 53.7475 20.7571 54.4048 20.3 54.9455Z" fill="white" stroke="#196ECF" stroke-width="4"/>
<path fill-rule="evenodd" clip-rule="evenodd" d="M20.2063 26.6835L27.1438 30.8708L25.3028 22.979L31.4321 17.6692L23.3607 16.9845L20.2063 9.54175L17.0518 16.9845L8.98047 17.6692L15.1098 22.979L13.2687 30.8708L20.2063 26.6835Z" fill="#196ECF"/>
</svg>
