<svg width="18" height="21" viewBox="0 0 18 21" fill="none" xmlns="http://www.w3.org/2000/svg">
<path fill-rule="evenodd" clip-rule="evenodd" d="M14 19C13.71 19 13.44 18.94 13.24 18.85C12.53 18.48 12.03 17.97 11.53 16.47C11.02 14.91 10.06 14.18 9.14 13.47C8.35 12.86 7.53 12.23 6.82 10.94C6.29 9.97997 6 8.92997 6 7.99997C6 5.19997 8.2 2.99997 11 2.99997C13.8 2.99997 16 5.19997 16 7.99997H18C18 4.06997 14.93 0.999971 11 0.999971C7.07 0.999971 4 4.06997 4 7.99997C4 9.25997 4.38 10.65 5.07 11.9C5.98 13.55 7.05 14.38 7.92 15.05C8.73 15.67 9.31 16.12 9.63 17.1C10.23 18.92 11 19.94 12.36 20.65C12.87 20.88 13.43 21 14 21C16.21 21 18 19.21 18 17H16C16 18.1 15.1 19 14 19ZM4.64 1.63997L3.22 0.219971C1.23 2.20997 0 4.95997 0 7.99997C0 11.04 1.23 13.79 3.22 15.78L4.63 14.37C3.01 12.74 2 10.49 2 7.99997C2 5.50997 3.01 3.25997 4.64 1.63997ZM8.5 7.99997C8.5 9.37997 9.62 10.5 11 10.5C12.38 10.5 13.5 9.37997 13.5 7.99997C13.5 6.61997 12.38 5.49997 11 5.49997C9.62 5.49997 8.5 6.61997 8.5 7.99997Z" fill="#196ECF"/>
</svg>
