<?xml version="1.0" encoding="utf-8"?>
<!-- Generator: Adobe Illustrator 26.4.1, SVG Export Plug-In . SVG Version: 6.00 Build 0)  -->
<svg version="1.1" id="Layer_1" xmlns="http://www.w3.org/2000/svg" xmlns:xlink="http://www.w3.org/1999/xlink" x="0px" y="0px"
	 viewBox="0 0 268.53 89.06" style="enable-background:new 0 0 268.53 89.06;" xml:space="preserve">
<style type="text/css">
	
		.st0{clip-path:url(#SVGID_00000177450441110456089120000009839173144518453133_);fill:url(#SVGID_00000166672959963996686760000011609945054927351952_);}
	
		.st1{clip-path:url(#SVGID_00000083084672041436675960000016004384868028214400_);fill:url(#SVGID_00000078763345817247657790000015632952514135696776_);}
	
		.st2{clip-path:url(#SVGID_00000145761573564041940930000014714250553753856919_);fill:url(#SVGID_00000176031465408753630430000015482109522083633304_);}
	
		.st3{clip-path:url(#SVGID_00000100381740634958509440000000030956412245970561_);fill:url(#SVGID_00000083780063076555496830000014899018423534278580_);}
	
		.st4{clip-path:url(#SVGID_00000163795046909932050870000011900920389132482484_);fill:url(#SVGID_00000034083286887103280630000017338214909731020167_);}
	
		.st5{clip-path:url(#SVGID_00000181802689428255982620000013558475611124239550_);fill:url(#SVGID_00000059997176747168936960000017094855334527426196_);}
	.st6{fill:#00B1E1;}
</style>
<g>
	<defs>
		<path id="SVGID_1_" d="M39.53,3.39v11.52h11.88v11.95v0V38.8h11.89v11.95H51.42V62.7H39.52V50.75h11.89V38.8H39.53h-0.01H27.64
			v11.95H15.75V38.8H4.29c-0.28,1.95-0.43,3.94-0.43,5.97c0,23.09,18.63,41.81,41.61,41.81c22.98,0,41.61-18.72,41.61-41.81
			c0-11.38-4.53-21.69-11.86-29.23v11.31H63.32V14.91H51.43V3.39c-1.95-0.28-3.93-0.43-5.96-0.43C43.45,2.96,41.47,3.11,39.53,3.39"
			/>
	</defs>
	<clipPath id="SVGID_00000139994367221875361980000000469353914519009467_">
		<use xlink:href="#SVGID_1_"  style="overflow:visible;"/>
	</clipPath>
	
		<radialGradient id="SVGID_00000150094758148560161680000005834501525941942177_" cx="-169.3794" cy="440.4172" r="1.9692" gradientTransform="matrix(-22.7933 -28.5129 -28.3736 22.9052 8701.5342 -14850.6162)" gradientUnits="userSpaceOnUse">
		<stop  offset="0" style="stop-color:#00B1E1"/>
		<stop  offset="0.1902" style="stop-color:#00B1E1"/>
		<stop  offset="1" style="stop-color:#8DC03F"/>
	</radialGradient>
	
		<polygon style="clip-path:url(#SVGID_00000139994367221875361980000000469353914519009467_);fill:url(#SVGID_00000150094758148560161680000005834501525941942177_);" points="
		36.5,127.42 -36.77,35.76 54.44,-37.87 127.71,53.79 	"/>
</g>
<g>
	<defs>
		<rect id="SVGID_00000170970416145951210990000008299201679026437035_" x="15.75" y="26.86" width="11.89" height="11.94"/>
	</defs>
	<clipPath id="SVGID_00000052790479718360473250000016324275013846782127_">
		<use xlink:href="#SVGID_00000170970416145951210990000008299201679026437035_"  style="overflow:visible;"/>
	</clipPath>
	
		<radialGradient id="SVGID_00000047038914805274178500000018003649803489779359_" cx="-169.3797" cy="440.4172" r="1.9692" gradientTransform="matrix(-22.7939 -28.5136 -28.3743 22.9058 8701.7461 -14851.0234)" gradientUnits="userSpaceOnUse">
		<stop  offset="0" style="stop-color:#00B1E1"/>
		<stop  offset="0.1902" style="stop-color:#00B1E1"/>
		<stop  offset="1" style="stop-color:#8DC03F"/>
	</radialGradient>
	
		<polygon style="clip-path:url(#SVGID_00000052790479718360473250000016324275013846782127_);fill:url(#SVGID_00000047038914805274178500000018003649803489779359_);" points="
		20.41,44.63 9.95,31.54 22.98,21.03 33.44,34.11 	"/>
</g>
<g>
	<defs>
		<path id="SVGID_00000129921425855982197720000012108893402724448408_" d="M63.32,14.91h11.26C71.3,11.68,67.51,9,63.32,7V14.91z"
			/>
	</defs>
	<clipPath id="SVGID_00000127027298859423430790000018311451315626952621_">
		<use xlink:href="#SVGID_00000129921425855982197720000012108893402724448408_"  style="overflow:visible;"/>
	</clipPath>
	
		<radialGradient id="SVGID_00000158743975247432947450000000263069183104822667_" cx="-169.3797" cy="440.4172" r="1.9692" gradientTransform="matrix(-22.7937 -28.5134 -28.3741 22.9056 8701.6895 -14850.9258)" gradientUnits="userSpaceOnUse">
		<stop  offset="0" style="stop-color:#00B1E1"/>
		<stop  offset="0.1902" style="stop-color:#00B1E1"/>
		<stop  offset="1" style="stop-color:#8DC03F"/>
	</radialGradient>
	
		<polygon style="clip-path:url(#SVGID_00000127027298859423430790000018311451315626952621_);fill:url(#SVGID_00000158743975247432947450000000263069183104822667_);" points="
		67.74,20.43 59.47,10.1 70.16,1.47 78.42,11.8 	"/>
</g>
<g>
	<defs>
		<path id="SVGID_00000063610103674468115890000002888587885862995639_" d="M7.87,26.85h7.88V15.51
			C12.54,18.81,9.86,22.64,7.87,26.85"/>
	</defs>
	<clipPath id="SVGID_00000055687595638301659540000016674497931828942994_">
		<use xlink:href="#SVGID_00000063610103674468115890000002888587885862995639_"  style="overflow:visible;"/>
	</clipPath>
	
		<radialGradient id="SVGID_00000073698505786394747940000015507673307890757040_" cx="-169.3793" cy="440.4172" r="1.9692" gradientTransform="matrix(-22.793 -28.5125 -28.3732 22.9049 8701.4336 -14850.4424)" gradientUnits="userSpaceOnUse">
		<stop  offset="0" style="stop-color:#00B1E1"/>
		<stop  offset="0.1902" style="stop-color:#00B1E1"/>
		<stop  offset="1" style="stop-color:#8DC03F"/>
	</radialGradient>
	
		<polygon style="clip-path:url(#SVGID_00000055687595638301659540000016674497931828942994_);fill:url(#SVGID_00000073698505786394747940000015507673307890757040_);" points="
		10.96,30.72 2.36,19.96 12.66,11.65 21.26,22.41 	"/>
</g>
<g>
	<defs>
		<path id="SVGID_00000141453299919238715970000012509232471268422319_" d="M16.36,14.91h11.28V6.99
			C23.44,8.99,19.64,11.68,16.36,14.91"/>
	</defs>
	<clipPath id="SVGID_00000098913279074219145980000016632784846802599089_">
		<use xlink:href="#SVGID_00000141453299919238715970000012509232471268422319_"  style="overflow:visible;"/>
	</clipPath>
	
		<radialGradient id="SVGID_00000036953486247929422480000016742644176073665980_" cx="-169.3797" cy="440.4172" r="1.9692" gradientTransform="matrix(-22.7938 -28.5135 -28.3742 22.9057 8701.7158 -14850.9541)" gradientUnits="userSpaceOnUse">
		<stop  offset="0" style="stop-color:#00B1E1"/>
		<stop  offset="0.1902" style="stop-color:#00B1E1"/>
		<stop  offset="1" style="stop-color:#8DC03F"/>
	</radialGradient>
	
		<polygon style="clip-path:url(#SVGID_00000098913279074219145980000016632784846802599089_);fill:url(#SVGID_00000036953486247929422480000016742644176073665980_);" points="
		20.78,20.44 12.51,10.09 23.21,1.45 31.49,11.8 	"/>
</g>
<g>
	<defs>
		<rect id="SVGID_00000029745516646808023300000017488491191154471100_" x="27.65" y="14.91" width="11.88" height="11.94"/>
	</defs>
	<clipPath id="SVGID_00000104701933125553496110000010640794317200598965_">
		<use xlink:href="#SVGID_00000029745516646808023300000017488491191154471100_"  style="overflow:visible;"/>
	</clipPath>
	
		<radialGradient id="SVGID_00000011751248203993303460000012336337503588499364_" cx="-169.3794" cy="440.4171" r="1.9692" gradientTransform="matrix(-22.7931 -28.5127 -28.3734 22.905 8701.4805 -14850.5186)" gradientUnits="userSpaceOnUse">
		<stop  offset="0" style="stop-color:#00B1E1"/>
		<stop  offset="0.1902" style="stop-color:#00B1E1"/>
		<stop  offset="1" style="stop-color:#8DC03F"/>
	</radialGradient>
	
		<polygon style="clip-path:url(#SVGID_00000104701933125553496110000010640794317200598965_);fill:url(#SVGID_00000011751248203993303460000012336337503588499364_);" points="
		32.3,32.68 21.84,19.6 34.86,9.09 45.32,22.17 	"/>
</g>
<g>
	<polygon points="102.75,9.51 143.34,9.51 143.34,14.51 108.01,14.51 108.01,33.03 140.63,33.03 140.63,38.02 108.01,38.02 
		108.01,57.57 143.34,57.57 143.34,62.57 102.75,62.57 	"/>
	<path d="M151.16,9.51h21.5c6.53,0,11.41,1.26,14.63,3.79c3.22,2.52,4.83,6.48,4.83,11.87c0,5.39-1.61,9.35-4.83,11.87
		c-3.22,2.52-8.09,3.78-14.63,3.78h-16.24v21.76h-5.27V9.51z M171.71,35.67c2.54,0,4.74-0.16,6.62-0.47
		c1.88-0.32,3.43-0.87,4.64-1.65c1.22-0.78,2.12-1.86,2.71-3.22c0.58-1.37,0.88-3.1,0.88-5.2c0-2.1-0.29-3.83-0.88-5.2
		c-0.59-1.37-1.49-2.45-2.71-3.26c-1.22-0.81-2.77-1.37-4.64-1.69c-1.88-0.32-4.08-0.48-6.62-0.48h-15.28v21.17H171.71z"/>
	<rect x="198.85" y="9.51" width="5.27" height="53.06"/>
	<path d="M256.84,26.85c-1.02-4.36-3.19-7.72-6.51-10.07c-3.32-2.35-7.56-3.53-12.72-3.53c-3.46,0-6.57,0.53-9.33,1.58
		c-2.75,1.05-5.09,2.56-7.02,4.52c-1.93,1.96-3.4,4.35-4.42,7.17c-1.02,2.82-1.54,5.99-1.54,9.52s0.51,6.69,1.54,9.48
		c1.02,2.79,2.46,5.17,4.31,7.13c1.85,1.96,4.08,3.47,6.69,4.52c2.61,1.05,5.52,1.58,8.74,1.58c2.63,0,5.11-0.37,7.42-1.1
		c2.31-0.74,4.38-1.8,6.18-3.2c1.8-1.4,3.33-3.09,4.57-5.07c1.24-1.98,2.13-4.23,2.67-6.73h5.63c-0.58,3.28-1.65,6.24-3.18,8.86
		c-1.54,2.62-3.44,4.85-5.7,6.69c-2.27,1.84-4.88,3.26-7.83,4.26c-2.95,1-6.16,1.51-9.62,1.51c-4.05,0-7.71-0.65-11.01-1.95
		c-3.29-1.3-6.11-3.16-8.45-5.59c-2.34-2.42-4.14-5.37-5.41-8.82c-1.27-3.45-1.9-7.31-1.9-11.58c0-4.31,0.63-8.19,1.9-11.65
		c1.27-3.45,3.08-6.38,5.45-8.78c2.36-2.4,5.27-4.25,8.7-5.55c3.44-1.3,7.33-1.95,11.67-1.95c3.41,0,6.53,0.43,9.36,1.29
		c2.83,0.86,5.29,2.09,7.39,3.71c2.1,1.62,3.8,3.59,5.12,5.92c1.32,2.33,2.19,4.94,2.63,7.83H256.84z"/>
	<polygon class="st6" points="104.48,71.16 104.48,75.26 109.37,75.26 109.37,71.16 111.1,71.16 111.1,81.57 109.37,81.57 
		109.37,76.8 104.48,76.8 104.48,81.57 102.75,81.57 102.75,71.16 	"/>
	<polygon class="st6" points="120.43,71.16 120.43,72.68 114.7,72.68 114.7,75.4 119.99,75.4 119.99,76.86 114.7,76.86 114.7,80 
		120.62,80 120.62,81.57 113,81.57 113,71.16 	"/>
	<path class="st6" d="M127.11,71.16l3.8,10.4h-1.84l-0.92-2.69h-4.03l-0.94,2.69h-1.8l3.79-10.4H127.11z M124.59,77.43h3.08
		l-1.54-4.51L124.59,77.43z"/>
	<path class="st6" d="M136.16,71.16c0.15,0,0.28,0,0.37,0.01c0.09,0.01,0.15,0.01,0.18,0.01c0.91,0,1.63,0.26,2.14,0.77
		c0.52,0.51,0.78,1.22,0.78,2.13c0,0.6-0.13,1.1-0.39,1.52c-0.26,0.42-0.62,0.71-1.09,0.9c0.24,0.08,0.44,0.18,0.6,0.3
		c0.16,0.12,0.28,0.27,0.37,0.44c0.09,0.17,0.15,0.37,0.19,0.59c0.04,0.22,0.07,0.47,0.09,0.75l0.09,1.49
		c0.02,0.31,0.05,0.56,0.09,0.75c0.04,0.19,0.15,0.34,0.34,0.45v0.3h-1.93c-0.11-0.19-0.17-0.4-0.2-0.62
		c-0.02-0.22-0.05-0.47-0.06-0.75l-0.06-1.24c-0.02-0.27-0.05-0.51-0.09-0.72c-0.04-0.21-0.12-0.38-0.24-0.52
		c-0.12-0.14-0.28-0.25-0.48-0.32c-0.21-0.07-0.48-0.11-0.83-0.11h-2.61v4.28h-1.71v-10.4H136.16z M133.39,75.82h2.46
		c0.68,0,1.19-0.12,1.53-0.35c0.34-0.24,0.5-0.66,0.5-1.27c0-0.6-0.17-1.01-0.51-1.24c-0.34-0.23-0.83-0.34-1.48-0.34h-2.51V75.82z"
		/>
	<rect x="141.33" y="71.16" class="st6" width="1.73" height="10.4"/>
	<polygon class="st6" points="146.84,71.16 151.67,78.95 151.67,71.16 153.34,71.16 153.34,81.57 151.52,81.57 146.67,73.78 
		146.67,81.57 145.01,81.57 145.01,71.16 	"/>
	<path class="st6" d="M162.31,74.34c-0.13-0.62-0.43-1.1-0.89-1.45c-0.46-0.35-1.03-0.52-1.73-0.52c-1.04,0-1.84,0.34-2.41,1.03
		c-0.57,0.69-0.86,1.66-0.86,2.92c0,0.64,0.08,1.2,0.23,1.69c0.15,0.49,0.37,0.91,0.65,1.24c0.28,0.34,0.62,0.59,1.02,0.77
		c0.4,0.17,0.84,0.26,1.31,0.26c0.41,0,0.79-0.07,1.14-0.2c0.35-0.13,0.65-0.33,0.91-0.58c0.25-0.25,0.46-0.55,0.6-0.91
		c0.15-0.36,0.23-0.76,0.25-1.22h-2.84v-1.43h4.44v5.61h-1.15l-0.29-1.32c-0.78,1.06-1.86,1.59-3.25,1.59
		c-0.7,0-1.34-0.13-1.93-0.38c-0.59-0.26-1.1-0.62-1.52-1.1c-0.42-0.48-0.75-1.05-0.99-1.73c-0.24-0.68-0.36-1.43-0.36-2.26
		c0-0.84,0.12-1.6,0.35-2.27c0.24-0.67,0.57-1.25,1-1.73c0.43-0.48,0.95-0.84,1.56-1.1c0.6-0.25,1.28-0.38,2.02-0.38
		c1.28,0,2.3,0.31,3.07,0.92c0.77,0.61,1.23,1.46,1.38,2.54H162.31z"/>
	<polygon points="171.62,71.16 171.62,75.26 176.52,75.26 176.52,71.16 178.25,71.16 178.25,81.57 176.52,81.57 176.52,76.8 
		171.62,76.8 171.62,81.57 169.9,81.57 169.9,71.16 	"/>
	<polygon points="187.72,71.16 187.72,72.68 181.99,72.68 181.99,75.4 187.28,75.4 187.28,76.86 181.99,76.86 181.99,80 187.91,80 
		187.91,81.57 180.29,81.57 180.29,71.16 	"/>
	<path d="M194.4,71.16l3.8,10.4h-1.84l-0.92-2.69h-4.03l-0.94,2.69h-1.8l3.79-10.4H194.4z M191.88,77.43h3.08l-1.54-4.51
		L191.88,77.43z"/>
	<polygon points="200.86,71.16 200.86,79.99 205.97,79.99 205.97,81.57 199.13,81.57 199.13,71.16 	"/>
	<polygon points="212.29,71.16 212.29,72.68 209.11,72.68 209.11,81.57 207.39,81.57 207.39,72.68 204.2,72.68 204.2,71.16 	"/>
	<polygon points="214.97,71.16 214.97,75.26 219.86,75.26 219.86,71.16 221.59,71.16 221.59,81.57 219.86,81.57 219.86,76.8 
		214.97,76.8 214.97,81.57 213.24,81.57 213.24,71.16 	"/>
	<path d="M230.39,74.42c-0.1-0.64-0.37-1.13-0.82-1.47c-0.45-0.34-1.05-0.51-1.8-0.51c-1,0-1.77,0.34-2.3,1
		c-0.54,0.67-0.81,1.62-0.81,2.86c0,1.26,0.28,2.25,0.83,2.94c0.55,0.7,1.3,1.05,2.25,1.05c0.37,0,0.72-0.06,1.04-0.17
		c0.32-0.12,0.6-0.28,0.84-0.5c0.23-0.22,0.42-0.48,0.57-0.77c0.14-0.3,0.23-0.64,0.26-1.01h1.68c-0.02,0.59-0.14,1.13-0.37,1.62
		c-0.23,0.49-0.54,0.92-0.94,1.27c-0.39,0.36-0.86,0.63-1.4,0.83c-0.54,0.2-1.12,0.3-1.76,0.3c-0.74,0-1.4-0.13-1.99-0.38
		c-0.59-0.25-1.09-0.61-1.5-1.09c-0.41-0.47-0.72-1.05-0.94-1.72c-0.22-0.68-0.33-1.44-0.33-2.3c0-0.87,0.11-1.64,0.33-2.32
		c0.22-0.68,0.54-1.25,0.96-1.72c0.42-0.47,0.94-0.83,1.54-1.08s1.29-0.37,2.06-0.37c1.27,0,2.28,0.32,3.02,0.95
		c0.75,0.63,1.17,1.49,1.27,2.58H230.39z"/>
	<path d="M237.91,71.16l3.8,10.4h-1.84l-0.92-2.69h-4.03l-0.94,2.69h-1.8l3.79-10.4H237.91z M235.39,77.43h3.08l-1.54-4.51
		L235.39,77.43z"/>
	<path d="M246.95,71.16c0.15,0,0.28,0,0.37,0.01c0.09,0.01,0.15,0.01,0.18,0.01c0.91,0,1.63,0.26,2.14,0.77
		c0.52,0.51,0.78,1.22,0.78,2.13c0,0.6-0.13,1.1-0.39,1.52c-0.26,0.42-0.62,0.71-1.09,0.9c0.24,0.08,0.44,0.18,0.6,0.3
		c0.16,0.12,0.28,0.27,0.37,0.44c0.09,0.17,0.15,0.37,0.19,0.59c0.04,0.22,0.07,0.47,0.09,0.75l0.09,1.49
		c0.02,0.31,0.05,0.56,0.09,0.75c0.04,0.19,0.15,0.34,0.34,0.45v0.3h-1.93c-0.11-0.19-0.17-0.4-0.2-0.62
		c-0.02-0.22-0.05-0.47-0.06-0.75l-0.06-1.24c-0.02-0.27-0.05-0.51-0.09-0.72c-0.04-0.21-0.12-0.38-0.24-0.52s-0.28-0.25-0.48-0.32
		c-0.21-0.07-0.48-0.11-0.83-0.11h-2.61v4.28h-1.71v-10.4H246.95z M244.18,75.82h2.46c0.68,0,1.19-0.12,1.53-0.35
		c0.34-0.24,0.5-0.66,0.5-1.27c0-0.6-0.17-1.01-0.51-1.24c-0.34-0.23-0.83-0.34-1.48-0.34h-2.51V75.82z"/>
	<polygon points="259.36,71.16 259.36,72.68 253.63,72.68 253.63,75.4 258.92,75.4 258.92,76.86 253.63,76.86 253.63,80 259.55,80 
		259.55,81.57 251.93,81.57 251.93,71.16 	"/>
</g>
<g>
	<path d="M263.26,71.64h-0.87v2.39h-0.55v-2.39h-0.87V71.2h2.29V71.64z M265.42,73.21l0.77-2.01h0.79v2.84h-0.52v-2.22h-0.01
		l-0.85,2.22h-0.39l-0.85-2.22h-0.02v2.22h-0.52V71.2h0.8L265.42,73.21z"/>
</g>
</svg>
