<?xml version="1.0" encoding="utf-8"?>
<!-- Generator: Adobe Illustrator 26.4.1, SVG Export Plug-In . SVG Version: 6.00 Build 0)  -->
<svg version="1.1" id="Layer_1" xmlns="http://www.w3.org/2000/svg" xmlns:xlink="http://www.w3.org/1999/xlink" x="0px" y="0px"
	 viewBox="0 0 71 23" style="enable-background:new 0 0 71 23;" xml:space="preserve">
<style type="text/css">
	
		.st0{clip-path:url(#SVGID_00000166675554208545947060000008286445566984491161_);fill:url(#SVGID_00000103974916756841729390000015367159564852129727_);}
	
		.st1{clip-path:url(#SVGID_00000165952034881938565180000000483330922470786474_);fill:url(#SVGID_00000021813869456400729500000014789374342235329206_);}
	
		.st2{clip-path:url(#SVGID_00000145753209346712114450000003398115354853154182_);fill:url(#SVGID_00000136408649948927578000000014771120178269128872_);}
	
		.st3{clip-path:url(#SVGID_00000014636446002177478380000004553007847233143444_);fill:url(#SVGID_00000145779866552335836270000017886435509305019524_);}
	
		.st4{clip-path:url(#SVGID_00000060737925448604936970000014327725233636249003_);fill:url(#SVGID_00000002357093101770240750000005966238404007264910_);}
	
		.st5{clip-path:url(#SVGID_00000181073079123698916080000001841172135785321657_);fill:url(#SVGID_00000062179682472231937210000003430191080088404664_);}
	.st6{fill:#00B1E1;}
</style>
<g>
	<g>
		<defs>
			<path id="SVGID_1_" d="M9.63,0.33v3.11h3.21v3.22v0v3.22h3.21v3.22h-3.21v3.22H9.62v-3.23h3.21V9.89H9.63h0H6.42v3.22H3.21V9.89
				H0.12C0.04,10.42,0,10.95,0,11.5c0,6.23,5.03,11.28,11.23,11.28c6.2,0,11.23-5.05,11.23-11.28c0-3.07-1.22-5.85-3.2-7.89v3.05
				h-3.21V3.44h-3.21V0.33c-0.53-0.08-1.06-0.12-1.61-0.12C10.68,0.22,10.15,0.26,9.63,0.33"/>
		</defs>
		<clipPath id="SVGID_00000008121984172581679880000016237160485878926214_">
			<use xlink:href="#SVGID_1_"  style="overflow:visible;"/>
		</clipPath>
		
			<radialGradient id="SVGID_00000079459354628078683590000008425283426583430786_" cx="-268.6522" cy="406.047" r="0.5314" gradientTransform="matrix(-22.7933 -28.5129 -28.3736 22.9052 5414.3179 -16943.2012)" gradientUnits="userSpaceOnUse">
			<stop  offset="0" style="stop-color:#00B1E1"/>
			<stop  offset="0.1902" style="stop-color:#00B1E1"/>
			<stop  offset="1" style="stop-color:#8DC03F"/>
		</radialGradient>
		
			<polygon style="clip-path:url(#SVGID_00000008121984172581679880000016237160485878926214_);fill:url(#SVGID_00000079459354628078683590000008425283426583430786_);" points="
			8.81,33.8 -10.96,9.07 13.65,-10.8 33.42,13.93 		"/>
	</g>
	<g>
		<defs>
			<rect id="SVGID_00000153697453714093279550000004261881382823909567_" x="3.21" y="6.67" width="3.21" height="3.22"/>
		</defs>
		<clipPath id="SVGID_00000036930139869483094330000009290161027060017340_">
			<use xlink:href="#SVGID_00000153697453714093279550000004261881382823909567_"  style="overflow:visible;"/>
		</clipPath>
		
			<radialGradient id="SVGID_00000165228063426254858880000010403488921288567727_" cx="-268.6525" cy="406.047" r="0.5314" gradientTransform="matrix(-22.7939 -28.5136 -28.3743 22.9058 5414.4438 -16943.6602)" gradientUnits="userSpaceOnUse">
			<stop  offset="0" style="stop-color:#00B1E1"/>
			<stop  offset="0.1902" style="stop-color:#00B1E1"/>
			<stop  offset="1" style="stop-color:#8DC03F"/>
		</radialGradient>
		
			<polygon style="clip-path:url(#SVGID_00000036930139869483094330000009290161027060017340_);fill:url(#SVGID_00000165228063426254858880000010403488921288567727_);" points="
			4.47,11.46 1.64,7.93 5.16,5.09 7.98,8.62 		"/>
	</g>
	<g>
		<defs>
			<path id="SVGID_00000046339678595362326960000006453500069964617641_" d="M16.04,3.44h3.04c-0.88-0.87-1.91-1.59-3.04-2.13V3.44z
				"/>
		</defs>
		<clipPath id="SVGID_00000072962724758413967780000013182161944409430967_">
			<use xlink:href="#SVGID_00000046339678595362326960000006453500069964617641_"  style="overflow:visible;"/>
		</clipPath>
		
			<radialGradient id="SVGID_00000105399292869454414760000007517048364284763796_" cx="-268.6524" cy="406.047" r="0.5314" gradientTransform="matrix(-22.7937 -28.5134 -28.3741 22.9056 5414.4072 -16943.5488)" gradientUnits="userSpaceOnUse">
			<stop  offset="0" style="stop-color:#00B1E1"/>
			<stop  offset="0.1902" style="stop-color:#00B1E1"/>
			<stop  offset="1" style="stop-color:#8DC03F"/>
		</radialGradient>
		
			<polygon style="clip-path:url(#SVGID_00000072962724758413967780000013182161944409430967_);fill:url(#SVGID_00000105399292869454414760000007517048364284763796_);" points="
			17.24,4.93 15.01,2.14 17.89,-0.18 20.12,2.6 		"/>
	</g>
	<g>
		<defs>
			<path id="SVGID_00000075151630182937496020000018015845701930141340_" d="M1.08,6.66h2.13V3.61C2.34,4.49,1.62,5.53,1.08,6.66"/>
		</defs>
		<clipPath id="SVGID_00000121981239775767373800000004373952885862468231_">
			<use xlink:href="#SVGID_00000075151630182937496020000018015845701930141340_"  style="overflow:visible;"/>
		</clipPath>
		
			<radialGradient id="SVGID_00000080179377998934423080000006824735429849879478_" cx="-268.6521" cy="406.0469" r="0.5314" gradientTransform="matrix(-22.793 -28.5125 -28.3732 22.9049 5414.2529 -16943.002)" gradientUnits="userSpaceOnUse">
			<stop  offset="0" style="stop-color:#00B1E1"/>
			<stop  offset="0.1902" style="stop-color:#00B1E1"/>
			<stop  offset="1" style="stop-color:#8DC03F"/>
		</radialGradient>
		
			<polygon style="clip-path:url(#SVGID_00000121981239775767373800000004373952885862468231_);fill:url(#SVGID_00000080179377998934423080000006824735429849879478_);" points="
			1.92,7.71 -0.4,4.81 2.38,2.56 4.7,5.46 		"/>
	</g>
	<g>
		<defs>
			<path id="SVGID_00000051351309068657046660000009113218283174225076_" d="M3.37,3.44h3.04V1.3C5.29,1.84,4.26,2.57,3.37,3.44"/>
		</defs>
		<clipPath id="SVGID_00000167369960503798723990000008609754323319431341_">
			<use xlink:href="#SVGID_00000051351309068657046660000009113218283174225076_"  style="overflow:visible;"/>
		</clipPath>
		
			<radialGradient id="SVGID_00000099645986696512064120000012133450206424799930_" cx="-268.6524" cy="406.047" r="0.5314" gradientTransform="matrix(-22.7938 -28.5135 -28.3742 22.9057 5414.4277 -16943.584)" gradientUnits="userSpaceOnUse">
			<stop  offset="0" style="stop-color:#00B1E1"/>
			<stop  offset="0.1902" style="stop-color:#00B1E1"/>
			<stop  offset="1" style="stop-color:#8DC03F"/>
		</radialGradient>
		
			<polygon style="clip-path:url(#SVGID_00000167369960503798723990000008609754323319431341_);fill:url(#SVGID_00000099645986696512064120000012133450206424799930_);" points="
			4.57,4.93 2.33,2.14 5.22,-0.19 7.46,2.6 		"/>
	</g>
	<g>
		<defs>
			<rect id="SVGID_00000160184184417491501530000003462376045183215775_" x="6.42" y="3.44" width="3.21" height="3.22"/>
		</defs>
		<clipPath id="SVGID_00000134207577235210280800000002314984035046241180_">
			<use xlink:href="#SVGID_00000160184184417491501530000003462376045183215775_"  style="overflow:visible;"/>
		</clipPath>
		
			<radialGradient id="SVGID_00000182513451532431199460000010139011772710617230_" cx="-268.6522" cy="406.047" r="0.5314" gradientTransform="matrix(-22.7931 -28.5127 -28.3734 22.905 5414.2837 -16943.0898)" gradientUnits="userSpaceOnUse">
			<stop  offset="0" style="stop-color:#00B1E1"/>
			<stop  offset="0.1902" style="stop-color:#00B1E1"/>
			<stop  offset="1" style="stop-color:#8DC03F"/>
		</radialGradient>
		
			<polygon style="clip-path:url(#SVGID_00000134207577235210280800000002314984035046241180_);fill:url(#SVGID_00000182513451532431199460000010139011772710617230_);" points="
			7.68,8.24 4.85,4.71 8.37,1.87 11.19,5.4 		"/>
	</g>
	<g>
		<polygon points="26.68,1.98 37.64,1.98 37.64,3.33 28.11,3.33 28.11,8.33 36.91,8.33 36.91,9.68 28.11,9.68 28.11,14.95 
			37.64,14.95 37.64,16.3 26.68,16.3 		"/>
		<path d="M39.75,1.98h5.8c1.76,0,3.08,0.34,3.95,1.02c0.87,0.68,1.3,1.75,1.3,3.2c0,1.45-0.43,2.52-1.3,3.2
			c-0.87,0.68-2.18,1.02-3.95,1.02h-4.38v5.87h-1.42V1.98z M45.29,9.04c0.68,0,1.28-0.04,1.79-0.13c0.51-0.09,0.92-0.23,1.25-0.44
			c0.33-0.21,0.57-0.5,0.73-0.87c0.16-0.37,0.24-0.84,0.24-1.4c0-0.57-0.08-1.03-0.24-1.4c-0.16-0.37-0.4-0.66-0.73-0.88
			C48,3.7,47.59,3.55,47.08,3.46c-0.51-0.09-1.1-0.13-1.79-0.13h-4.12v5.71H45.29z"/>
		<rect x="52.62" y="1.98" width="1.42" height="14.32"/>
		<path d="M68.27,6.66c-0.28-1.18-0.86-2.08-1.76-2.72C65.61,3.31,64.47,3,63.08,3c-0.93,0-1.77,0.14-2.52,0.43
			c-0.74,0.28-1.37,0.69-1.89,1.22c-0.52,0.53-0.92,1.17-1.19,1.93c-0.28,0.76-0.41,1.62-0.41,2.57c0,0.95,0.14,1.8,0.41,2.56
			c0.28,0.75,0.66,1.39,1.16,1.92c0.5,0.53,1.1,0.94,1.81,1.22c0.7,0.28,1.49,0.43,2.36,0.43c0.71,0,1.38-0.1,2-0.3
			c0.62-0.2,1.18-0.49,1.67-0.86c0.49-0.38,0.9-0.83,1.23-1.37c0.34-0.54,0.58-1.14,0.72-1.81h1.52c-0.16,0.89-0.44,1.68-0.86,2.39
			c-0.41,0.71-0.93,1.31-1.54,1.8c-0.61,0.5-1.32,0.88-2.11,1.15c-0.8,0.27-1.66,0.41-2.6,0.41c-1.09,0-2.08-0.18-2.97-0.53
			c-0.89-0.35-1.65-0.85-2.28-1.51c-0.63-0.65-1.12-1.45-1.46-2.38c-0.34-0.93-0.51-1.97-0.51-3.12c0-1.16,0.17-2.21,0.51-3.14
			c0.34-0.93,0.83-1.72,1.47-2.37c0.64-0.65,1.42-1.15,2.35-1.5c0.93-0.35,1.98-0.53,3.15-0.53c0.92,0,1.76,0.12,2.53,0.35
			c0.76,0.23,1.43,0.57,1.99,1c0.57,0.44,1.03,0.97,1.38,1.6c0.36,0.63,0.59,1.33,0.71,2.11H68.27z"/>
		<polygon class="st6" points="27.15,18.62 27.15,19.73 28.47,19.73 28.47,18.62 28.94,18.62 28.94,21.43 28.47,21.43 28.47,20.14 
			27.15,20.14 27.15,21.43 26.68,21.43 26.68,18.62 		"/>
		<polygon class="st6" points="31.46,18.62 31.46,19.03 29.91,19.03 29.91,19.76 31.34,19.76 31.34,20.16 29.91,20.16 29.91,21.01 
			31.51,21.01 31.51,21.43 29.45,21.43 29.45,18.62 		"/>
		<path class="st6" d="M33.26,18.62l1.03,2.81h-0.5l-0.25-0.73h-1.09l-0.25,0.73h-0.49l1.02-2.81H33.26z M32.58,20.31h0.83
			l-0.42-1.22L32.58,20.31z"/>
		<path class="st6" d="M35.7,18.62c0.04,0,0.07,0,0.1,0c0.02,0,0.04,0,0.05,0c0.25,0,0.44,0.07,0.58,0.21
			c0.14,0.14,0.21,0.33,0.21,0.57c0,0.16-0.03,0.3-0.1,0.41c-0.07,0.11-0.17,0.19-0.3,0.24c0.06,0.02,0.12,0.05,0.16,0.08
			c0.04,0.03,0.08,0.07,0.1,0.12c0.02,0.05,0.04,0.1,0.05,0.16c0.01,0.06,0.02,0.13,0.02,0.2l0.02,0.4c0.01,0.08,0.01,0.15,0.02,0.2
			c0.01,0.05,0.04,0.09,0.09,0.12v0.08h-0.52c-0.03-0.05-0.05-0.11-0.05-0.17c-0.01-0.06-0.01-0.13-0.02-0.2l-0.02-0.34
			c-0.01-0.07-0.01-0.14-0.03-0.19c-0.01-0.06-0.03-0.1-0.06-0.14c-0.03-0.04-0.07-0.07-0.13-0.09c-0.06-0.02-0.13-0.03-0.22-0.03
			h-0.7v1.16h-0.46v-2.81H35.7z M34.95,19.88h0.66c0.18,0,0.32-0.03,0.41-0.1c0.09-0.06,0.14-0.18,0.14-0.34
			c0-0.16-0.05-0.27-0.14-0.33c-0.09-0.06-0.22-0.09-0.4-0.09h-0.68V19.88z"/>
		<rect x="37.09" y="18.62" class="st6" width="0.47" height="2.81"/>
		<polygon class="st6" points="38.58,18.62 39.88,20.72 39.88,18.62 40.33,18.62 40.33,21.43 39.85,21.43 38.54,19.33 38.54,21.43 
			38.09,21.43 38.09,18.62 		"/>
		<path class="st6" d="M42.76,19.48c-0.04-0.17-0.12-0.3-0.24-0.39c-0.12-0.09-0.28-0.14-0.47-0.14c-0.28,0-0.5,0.09-0.65,0.28
			c-0.15,0.19-0.23,0.45-0.23,0.79c0,0.17,0.02,0.32,0.06,0.46c0.04,0.13,0.1,0.24,0.18,0.34c0.08,0.09,0.17,0.16,0.28,0.21
			c0.11,0.05,0.23,0.07,0.35,0.07c0.11,0,0.21-0.02,0.31-0.05c0.09-0.04,0.18-0.09,0.24-0.16c0.07-0.07,0.12-0.15,0.16-0.25
			c0.04-0.1,0.06-0.21,0.07-0.33h-0.77v-0.39h1.2v1.52h-0.31l-0.08-0.36c-0.21,0.29-0.5,0.43-0.88,0.43c-0.19,0-0.36-0.03-0.52-0.1
			c-0.16-0.07-0.3-0.17-0.41-0.3c-0.11-0.13-0.2-0.28-0.27-0.47c-0.06-0.18-0.1-0.39-0.1-0.61c0-0.23,0.03-0.43,0.09-0.61
			c0.06-0.18,0.15-0.34,0.27-0.47c0.12-0.13,0.26-0.23,0.42-0.3c0.16-0.07,0.34-0.1,0.54-0.1c0.34,0,0.62,0.08,0.83,0.25
			c0.21,0.17,0.33,0.39,0.37,0.69H42.76z"/>
		<polygon points="45.27,18.62 45.27,19.73 46.59,19.73 46.59,18.62 47.06,18.62 47.06,21.43 46.59,21.43 46.59,20.14 45.27,20.14 
			45.27,21.43 44.8,21.43 44.8,18.62 		"/>
		<polygon points="49.61,18.62 49.61,19.03 48.07,19.03 48.07,19.76 49.49,19.76 49.49,20.16 48.07,20.16 48.07,21.01 49.66,21.01 
			49.66,21.43 47.61,21.43 47.61,18.62 		"/>
		<path d="M51.42,18.62l1.03,2.81h-0.5L51.7,20.7h-1.09l-0.25,0.73h-0.49l1.02-2.81H51.42z M50.74,20.31h0.83l-0.42-1.22
			L50.74,20.31z"/>
		<polygon points="53.16,18.62 53.16,21 54.54,21 54.54,21.43 52.69,21.43 52.69,18.62 		"/>
		<polygon points="56.24,18.62 56.24,19.03 55.38,19.03 55.38,21.43 54.92,21.43 54.92,19.03 54.06,19.03 54.06,18.62 		"/>
		<polygon points="56.97,18.62 56.97,19.73 58.29,19.73 58.29,18.62 58.75,18.62 58.75,21.43 58.29,21.43 58.29,20.14 56.97,20.14 
			56.97,21.43 56.5,21.43 56.5,18.62 		"/>
		<path d="M61.13,19.5c-0.03-0.17-0.1-0.3-0.22-0.4c-0.12-0.09-0.28-0.14-0.49-0.14c-0.27,0-0.48,0.09-0.62,0.27
			c-0.15,0.18-0.22,0.44-0.22,0.77c0,0.34,0.07,0.61,0.22,0.79s0.35,0.28,0.61,0.28c0.1,0,0.19-0.02,0.28-0.05
			c0.09-0.03,0.16-0.08,0.23-0.13c0.06-0.06,0.11-0.13,0.15-0.21c0.04-0.08,0.06-0.17,0.07-0.27h0.45c-0.01,0.16-0.04,0.3-0.1,0.44
			c-0.06,0.13-0.15,0.25-0.25,0.34c-0.11,0.1-0.23,0.17-0.38,0.22c-0.15,0.05-0.3,0.08-0.47,0.08c-0.2,0-0.38-0.03-0.54-0.1
			c-0.16-0.07-0.29-0.17-0.4-0.29c-0.11-0.13-0.19-0.28-0.25-0.46c-0.06-0.18-0.09-0.39-0.09-0.62c0-0.23,0.03-0.44,0.09-0.62
			c0.06-0.18,0.15-0.34,0.26-0.46c0.11-0.13,0.25-0.22,0.42-0.29c0.16-0.07,0.35-0.1,0.56-0.1c0.34,0,0.61,0.09,0.82,0.26
			c0.2,0.17,0.32,0.4,0.34,0.7H61.13z"/>
		<path d="M63.15,18.62l1.03,2.81h-0.5l-0.25-0.73h-1.09l-0.25,0.73h-0.49l1.02-2.81H63.15z M62.47,20.31h0.83l-0.42-1.22
			L62.47,20.31z"/>
		<path d="M65.6,18.62c0.04,0,0.07,0,0.1,0c0.02,0,0.04,0,0.05,0c0.25,0,0.44,0.07,0.58,0.21c0.14,0.14,0.21,0.33,0.21,0.57
			c0,0.16-0.03,0.3-0.1,0.41c-0.07,0.11-0.17,0.19-0.3,0.24c0.06,0.02,0.12,0.05,0.16,0.08c0.04,0.03,0.08,0.07,0.1,0.12
			c0.02,0.05,0.04,0.1,0.05,0.16c0.01,0.06,0.02,0.13,0.02,0.2l0.02,0.4c0.01,0.08,0.01,0.15,0.02,0.2
			c0.01,0.05,0.04,0.09,0.09,0.12v0.08h-0.52c-0.03-0.05-0.05-0.11-0.05-0.17c-0.01-0.06-0.01-0.13-0.02-0.2L66,20.72
			c-0.01-0.07-0.01-0.14-0.03-0.19c-0.01-0.06-0.03-0.1-0.06-0.14c-0.03-0.04-0.07-0.07-0.13-0.09c-0.06-0.02-0.13-0.03-0.22-0.03
			h-0.7v1.16h-0.46v-2.81H65.6z M64.85,19.88h0.66c0.18,0,0.32-0.03,0.41-0.1c0.09-0.06,0.14-0.18,0.14-0.34
			c0-0.16-0.05-0.27-0.14-0.33c-0.09-0.06-0.22-0.09-0.4-0.09h-0.68V19.88z"/>
		<polygon points="68.94,18.62 68.94,19.03 67.4,19.03 67.4,19.76 68.82,19.76 68.82,20.16 67.4,20.16 67.4,21.01 69,21.01 
			69,21.43 66.94,21.43 66.94,18.62 		"/>
	</g>
	<g>
		<path d="M70,18.75h-0.23v0.64h-0.15v-0.64h-0.23v-0.12H70V18.75z M70.58,19.17l0.21-0.54H71v0.77h-0.14v-0.6h0l-0.23,0.6h-0.1
			l-0.23-0.6h0v0.6h-0.14v-0.77h0.22L70.58,19.17z"/>
	</g>
</g>
</svg>
